<svg xmlns="http://www.w3.org/2000/svg" fill="none" viewBox="0 0 679 154"><path fill="url(#a)" fill-rule="evenodd" d="M116.33 128.78a71.65 71.65 0 1 1 25.26-71.65h503.25A33.87 33.87 0 0 1 678.71 91v3.9a33.87 33.87 0 0 1-33.87 33.88H116.33Z" clip-rule="evenodd"/><path fill="#B7D7FF" d="M182.42 67.56v41.14a21.97 21.97 0 0 1-7.2 3.92c-3 1.05-6.65 1.58-10.94 1.58-4.29 0-7.94-.96-10.94-2.87-3.4-2.07-5.1-5-5.1-8.78V64.86h-13.63a22.5 22.5 0 0 1-4.21-13.16c0-3.24.5-6.05 1.52-8.43a15.53 15.53 0 0 1 3.86-5.62h60.51a24.74 24.74 0 0 1 2.81 6.38 26.1 26.1 0 0 1 1.11 7.43c0 4.6-1.01 8-3.04 10.19-2.03 2.14-4.76 3.21-8.2 3.21h-17.14a2.2 2.2 0 0 0-.18.88c0 .7.41 1.17 1.23 1.4.86.28 2.7.42 5.5.42h4.04Zm57.64 5.2c0-3.9-.17-6.57-.52-8.01-.35-1.49-1-2.23-1.93-2.23-.59 0-1.12.2-1.58.59.07.7.2 1.64.35 2.8.15 1.18.23 3.67.23 7.5v3.8a67.37 67.37 0 0 1-.47 8.9l-.11 1.4c.47.4 1 .59 1.58.59.93 0 1.58-.72 1.93-2.17.35-1.48.53-4.17.53-8.07v-5.1Zm-2.34 42.26a42.9 42.9 0 0 1-19.13-4.28 33.82 33.82 0 0 1-13.99-13.16c-3.55-5.93-5.32-13.33-5.32-22.18 0-12.84 3.86-22.86 11.58-30.08 6.87-6.36 15.7-9.54 26.51-9.54 11.75 0 21.03 3.65 27.86 10.94 6.87 7.26 10.3 16.82 10.3 28.68 0 13.18-3.67 23.25-11 30.2-6.67 6.28-15.6 9.42-26.8 9.42Zm154.03-21.13v14.8a21.95 21.95 0 0 1-7.2 3.93c-2.96 1.05-6.6 1.58-10.88 1.58-4.26 0-7.92-.96-11-2.87-3.4-2.07-5.1-5.01-5.1-8.84V43.04c0-3.6 8.8-5.39 26.4-5.39h34.35a25.4 25.4 0 0 1 2.51 6.97c.55 2.53.82 4.81.82 6.84 0 8.94-3.92 13.4-11.76 13.4h-20.25c-1.48 0-2.22.63-2.22 1.88v.4c0 .24.04.4.12.47h25.86a22.25 22.25 0 0 1 2.99 11.47c0 5.31-1.2 9.45-3.57 12.41h-28.68c-.31.31-.47.66-.47 1.05 0 .63.47 1 1.4 1.12.98.11 2.08.17 3.29.17a92 92 0 0 1 3.39.06Zm83.04-57.29c4.68 0 8.74 1.27 12.17 3.8 3.44 2.54 5.15 6.15 5.15 10.83v32.54c0 9.9-3.02 17.55-9.07 22.94-6.05 5.34-14.41 8.01-25.1 8.01-10.65 0-18.94-2.63-24.88-7.9-6.04-5.26-9.07-12.95-9.07-23.05V42.04a24.9 24.9 0 0 1 15.98-5.5c5.07 0 9.09 1.35 12.05 4.04 2.97 2.65 4.45 6.69 4.45 12.11v34.12c.43.31.92.47 1.47.47.58 0 1-.14 1.23-.41.27-.31.4-.88.4-1.7V52.63c0-2.45-.11-4.4-.35-5.85a15.6 15.6 0 0 0-1.4-4.33c4.68-3.9 10.34-5.85 16.97-5.85Zm85.44 77.6c-5.35 0-9.54-.88-12.58-2.64-3.28-1.83-5.05-4.42-5.33-7.78l-.53-5.5c3.6-.86 6.62-3.08 9.08-6.67.66-1.02 1-1.9 1-2.64 0-1.01-.52-1.52-1.53-1.52h-.18c-.03.04-.11.06-.23.06-2.73 5.74-7.16 8.6-13.28 8.6-3.13 0-5.8-.68-8.02-2.04-2.19-1.37-4.2-3.73-6.03-7.09h-.35c-1.05 0-1.58.45-1.58 1.35 0 .63.23 1.33.7 2.1a18.08 18.08 0 0 0 5.85 6.15 12.8 12.8 0 0 0 5.8 2.23l-.47 11.06a24.7 24.7 0 0 1-7.43 3.27c-2.58.7-6.26 1.06-11.06 1.06a28.2 28.2 0 0 1-12.76-2.81c-4.6-2.3-6.9-5.5-6.9-9.6 0-5.11 1-17.73 3.04-37.86a481.28 481.28 0 0 1 2.63-22c4.02-3.6 9.95-5.39 17.8-5.39 5.69 0 10.4 1.05 14.15 3.16l3.22 10.77-2.05 8.6a6.58 6.58 0 0 0-.23 1.7c0 1.36.78 2.07 2.34 2.1l5.56-23.11c1.6-.86 3.69-1.6 6.26-2.22 2.58-.67 5.38-1 8.43-1 5.7 0 9.9.98 12.64 2.93 2.77 1.9 4.4 5.15 4.91 9.71.12.86.3 2.28.53 4.27 3.55 30.51 5.33 48.48 5.33 53.9-4.34 4.56-10.58 6.85-18.73 6.85Zm52.55-22.36c1.29-.23 1.93-.88 1.93-1.93 0-1.1-.35-2.3-1.05-3.63a12.9 12.9 0 0 0-2.99-3.86c-3.47-3.12-8.17-4.68-14.1-4.68-2.93 0-5.66.49-8.2 1.46a15 15 0 0 1-6.43-6.5 19.9 19.9 0 0 1-2.4-9.6c0-8.96 3.75-15.89 11.24-20.77 6.43-4.17 14.37-6.26 23.82-6.26 7.02 0 12.93.76 17.73 2.28 4.8 1.49 8.72 3.4 11.76 5.74a24.2 24.2 0 0 1 1.34 8.02c0 2.77-.37 5.28-1.1 7.55a13.12 13.12 0 0 1-3.23 5.44c-1.32-.98-3.72-1.97-7.2-2.99a34.09 34.09 0 0 0-9.47-1.52c-2.85 0-4.76.18-5.74.53-.94.35-1.4.9-1.4 1.64 0 .35.06.68.17 1a21.7 21.7 0 0 1 5.27-.53c7.6 0 13.81 1.79 18.6 5.38 5.66 4.3 8.5 10.73 8.5 19.31 0 7.57-3.07 13.85-9.2 18.84-6.63 5.35-15.54 8.02-26.74 8.02a80 80 0 0 1-16.03-1.4c-4.53-.9-8.94-2.5-13.23-4.8-2.92-4.25-4.39-8.56-4.39-12.93 0-4.41 1.5-8.06 4.5-10.95a15.42 15.42 0 0 1 11.07-4.33c4.4 0 8 .9 10.77 2.7 2.8 1.79 4.87 4.71 6.2 8.77Z"/><path fill="url(#b)" d="M183.72 66.25v41.14a21.92 21.92 0 0 1-7.2 3.92c-3 1.06-6.64 1.58-10.94 1.58-4.29 0-7.94-.95-10.94-2.86-3.4-2.07-5.09-5-5.09-8.78V63.56h-13.64a22.5 22.5 0 0 1-4.2-13.17c0-3.23.5-6.04 1.51-8.42a15.54 15.54 0 0 1 3.87-5.62h60.5a24.78 24.78 0 0 1 2.81 6.38 25.7 25.7 0 0 1 1.11 7.43c0 4.6-1 8-3.04 10.18-2.03 2.15-4.76 3.22-8.19 3.22h-18.5a11.1 11.1 0 0 0-.14 1.93c0 .7.4 1.17 1.23 1.4.85.28 4-.64 6.82-.64h4.03Z"/><path fill="url(#c)" d="M241.37 71.46c0-3.9-.18-6.57-.53-8.02-.35-1.48-1-2.22-1.93-2.22-.59 0-2.4.73-2.86 1.12 0 1.95.5 1.43.65 2.6.16 1.17 1.22 3.34 1.22 7.17v3.8a66.86 66.86 0 0 1-.47 8.9c-.04.46-.71 1.81-.75 2.28.47.39 1.37.65 1.95.65.94 0 1.84-1.67 2.2-3.11.34-1.48.52-4.18.52-8.08v-5.09Zm-2.34 42.25a42.9 42.9 0 0 1-19.14-4.27 33.83 33.83 0 0 1-13.99-13.17c-3.55-5.93-5.32-13.32-5.32-22.17 0-12.84 3.86-22.87 11.59-30.08 6.86-6.36 15.7-9.54 26.5-9.54 11.75 0 21.03 3.64 27.86 10.94 6.87 7.26 10.3 16.81 10.3 28.68 0 13.18-3.67 23.25-11 30.2-6.67 6.27-15.6 9.41-26.8 9.41Z"/><path fill="url(#d)" d="M393.05 92.59v14.8a21.92 21.92 0 0 1-7.2 3.92c-2.96 1.06-6.59 1.58-10.88 1.58-4.25 0-7.92-.95-11-2.86-3.4-2.07-5.1-5.02-5.1-8.84V41.73c0-3.59 8.8-5.38 26.4-5.38h34.35a25.38 25.38 0 0 1 2.52 6.96c.54 2.54.82 4.82.82 6.85 0 8.93-3.92 13.4-11.77 13.4h-21.22c-1.48 0-2.48.79-2.48 2.03l-.07.95c.13.64 1.34-.3 1.42-.23h25.87a22.26 22.26 0 0 1 2.98 11.47c0 5.3-1.2 9.44-3.57 12.4h-29.94c-.3.32-.46.67-.46 1.06 0 1.29-.1 1.6.84 1.71.97.12 3.89-.42 5.1-.42 1.2 0 2.34.02 3.4.06Z"/><path fill="url(#e)" d="M476.1 35.3c4.67 0 8.73 1.26 12.16 3.8 3.44 2.54 5.15 6.14 5.15 10.83v32.53c0 9.91-3.02 17.56-9.07 22.94-6.04 5.35-14.41 8.02-25.1 8.02-10.65 0-18.94-2.63-24.87-7.9-6.05-5.27-9.07-12.95-9.07-23.06V40.74a24.9 24.9 0 0 1 15.97-5.5c5.08 0 9.1 1.34 12.06 4.04 2.96 2.65 4.45 6.69 4.45 12.1v35.27c.43.31.49.44 1.03.44.59 0 1.42-.32 1.66-.6.27-.3.4-1.8.4-2.62V51.33c0-2.46-.11-4.4-.34-5.85a15.6 15.6 0 0 0-1.4-4.33c4.67-3.9 10.33-5.85 16.96-5.85Z"/><path fill="url(#f)" d="M561.53 112.9c-5.34 0-9.54-.88-12.58-2.64-3.28-1.83-5.05-4.43-5.33-7.78l-.52-5.5c3.59-.86 6.61-3.09 9.07-6.67.66-1.02 1-1.9 1-2.64 0-1.01-.51-1.52-1.53-1.52h-.17c-.04.04-.7 0-.82 0-2.73 5.74-6.58 8.66-12.7 8.66a15 15 0 0 1-8.02-2.05c-2.18-1.36-4.2-3.72-6.03-7.08h-1.23c-1.05 0-1.98 1.16-1.98 2.06 0 .62.18.52.65 1.3 1.56 2.62 4.85 4.76 7.19 6.24a12.8 12.8 0 0 0 5.79 2.22l-.47 11.06a24.76 24.76 0 0 1-7.43 3.28c-2.57.7-6.26 1.05-11.06 1.05a28.2 28.2 0 0 1-12.76-2.8c-4.6-2.3-6.9-5.5-6.9-9.6 0-5.11 1.01-17.73 3.04-37.86 1.1-10.5 1.97-17.83 2.63-22 4.02-3.6 9.95-5.4 17.8-5.4 5.69 0 10.41 1.06 14.16 3.17l3.21 10.77-2.04 8.6c-.16.58-.78 3.37-.78 3.92 0 1.36 1.04 1.26 2.6 1.3l5.84-24.53c1.6-.86 3.69-1.6 6.26-2.23 2.58-.66 5.39-1 8.43-1 5.7 0 9.91.98 12.64 2.93 2.77 1.92 4.4 5.15 4.92 9.72.11.86.29 2.28.52 4.27 3.55 30.5 5.33 48.47 5.33 53.9-4.33 4.56-10.57 6.84-18.73 6.84Z"/><path fill="url(#g)" d="M613.18 91.71c1.29-.23 2.83-2.05 2.83-3.1 0-1.1-.35-2.3-1.05-3.63a12.89 12.89 0 0 0-2.98-3.86c-3.48-3.12-8.18-4.68-14.1-4.68-2.93 0-5.66.48-8.2 1.46a15 15 0 0 1-6.44-6.5 19.9 19.9 0 0 1-2.4-9.6c0-8.97 3.75-15.9 11.24-20.77 6.44-4.17 14.38-6.26 23.82-6.26 7.02 0 12.93.76 17.73 2.28 4.8 1.48 8.72 3.4 11.76 5.74.9 2.57 1.35 5.24 1.35 8.01 0 2.77-.37 5.29-1.11 7.55a13.14 13.14 0 0 1-3.22 5.45c-1.33-.98-3.73-1.97-7.2-2.99a34.09 34.09 0 0 0-9.48-1.52c-2.85 0-5.99.44-6.97.79-.93.35-1.67.87-1.67 1.6 0 .36.15 1.24.27 1.55 1.37-.35 4.53-1.3 6.67-1.3 7.6 0 13.81 1.79 18.61 5.38 5.66 4.29 8.49 10.73 8.49 19.3 0 7.58-3.07 13.86-9.2 18.85-6.62 5.35-15.54 8.02-26.73 8.02a80.1 80.1 0 0 1-16.04-1.4 47.4 47.4 0 0 1-13.23-4.8c-2.92-4.26-4.38-8.57-4.38-12.94 0-4.4 1.5-8.05 4.5-10.94 3-2.89 6.7-4.33 11.06-4.33 4.41 0 8 .9 10.77 2.7 2.8 1.79 3.98 5.89 5.3 9.94Z"/><mask id="h" width="528" height="88" x="126.4" y="31.78" fill="#000" maskUnits="userSpaceOnUse"><path fill="#fff" d="M126.4 31.78h528v88h-528z"/><path d="M182.42 67.56v41.14a21.97 21.97 0 0 1-7.2 3.92c-3 1.05-6.65 1.58-10.94 1.58-4.29 0-7.94-.96-10.94-2.87-3.4-2.07-5.1-5-5.1-8.78V64.86h-13.63a22.5 22.5 0 0 1-4.21-13.16c0-3.24.5-6.05 1.52-8.43a15.53 15.53 0 0 1 3.86-5.62h60.51a24.74 24.74 0 0 1 2.81 6.38 26.1 26.1 0 0 1 1.11 7.43c0 4.6-1.01 8-3.04 10.19-2.03 2.14-4.76 3.21-8.2 3.21h-17.14a2.2 2.2 0 0 0-.18.88c0 .7.41 1.17 1.23 1.4.86.28 2.7.42 5.5.42h4.04Zm57.64 5.2c0-3.9-.17-6.57-.52-8.01-.35-1.49-1-2.23-1.93-2.23-.59 0-1.12.2-1.58.59.07.7.2 1.64.35 2.8.15 1.18.23 3.67.23 7.5v3.8a67.37 67.37 0 0 1-.47 8.9l-.11 1.4c.47.4 1 .59 1.58.59.93 0 1.58-.72 1.93-2.17.35-1.48.53-4.17.53-8.07v-5.1Zm-2.34 42.26a42.9 42.9 0 0 1-19.13-4.28 33.82 33.82 0 0 1-13.99-13.16c-3.55-5.93-5.32-13.33-5.32-22.18 0-12.84 3.86-22.86 11.58-30.08 6.87-6.36 15.7-9.54 26.51-9.54 11.75 0 21.03 3.65 27.86 10.94 6.87 7.26 10.3 16.82 10.3 28.68 0 13.18-3.67 23.25-11 30.2-6.67 6.28-15.6 9.42-26.8 9.42Zm154.03-21.13v14.8a21.95 21.95 0 0 1-7.2 3.93c-2.96 1.05-6.6 1.58-10.88 1.58-4.26 0-7.92-.96-11-2.87-3.4-2.07-5.1-5.01-5.1-8.84V43.04c0-3.6 8.8-5.39 26.4-5.39h34.35a25.4 25.4 0 0 1 2.51 6.97c.55 2.53.82 4.81.82 6.84 0 8.94-3.92 13.4-11.76 13.4h-20.25c-1.48 0-2.22.63-2.22 1.88v.4c0 .24.04.4.12.47h25.86a22.25 22.25 0 0 1 2.99 11.47c0 5.31-1.2 9.45-3.57 12.41h-28.68c-.31.31-.47.66-.47 1.05 0 .63.47 1 1.4 1.12.98.11 2.08.17 3.29.17a92 92 0 0 1 3.39.06Zm83.04-57.29c4.68 0 8.74 1.27 12.17 3.8 3.44 2.54 5.15 6.15 5.15 10.83v32.54c0 9.9-3.02 17.55-9.07 22.94-6.05 5.34-14.41 8.01-25.1 8.01-10.65 0-18.94-2.63-24.88-7.9-6.04-5.26-9.07-12.95-9.07-23.05V42.04a24.9 24.9 0 0 1 15.98-5.5c5.07 0 9.09 1.35 12.05 4.04 2.97 2.65 4.45 6.69 4.45 12.11v34.12c.43.31.92.47 1.47.47.58 0 1-.14 1.23-.41.27-.31.4-.88.4-1.7V52.63c0-2.45-.11-4.4-.35-5.85a15.6 15.6 0 0 0-1.4-4.33c4.68-3.9 10.34-5.85 16.97-5.85Zm85.44 77.6c-5.35 0-9.54-.88-12.58-2.64-3.28-1.83-5.05-4.42-5.33-7.78l-.53-5.5c3.6-.86 6.62-3.08 9.08-6.67.66-1.02 1-1.9 1-2.64 0-1.01-.52-1.52-1.53-1.52h-.18c-.03.04-.11.06-.23.06-2.73 5.74-7.16 8.6-13.28 8.6-3.13 0-5.8-.68-8.02-2.04-2.19-1.37-4.2-3.73-6.03-7.09h-.35c-1.05 0-1.58.45-1.58 1.35 0 .63.23 1.33.7 2.1a18.08 18.08 0 0 0 5.85 6.15 12.8 12.8 0 0 0 5.8 2.23l-.47 11.06a24.7 24.7 0 0 1-7.43 3.27c-2.58.7-6.26 1.06-11.06 1.06a28.2 28.2 0 0 1-12.76-2.81c-4.6-2.3-6.9-5.5-6.9-9.6 0-5.11 1-17.73 3.04-37.86a481.28 481.28 0 0 1 2.63-22c4.02-3.6 9.95-5.39 17.8-5.39 5.69 0 10.4 1.05 14.15 3.16l3.22 10.77-2.05 8.6a6.58 6.58 0 0 0-.23 1.7c0 1.36.78 2.07 2.34 2.1l5.56-23.11c1.6-.86 3.69-1.6 6.26-2.22 2.58-.67 5.38-1 8.43-1 5.7 0 9.9.98 12.64 2.93 2.77 1.9 4.4 5.15 4.91 9.71.12.86.3 2.28.53 4.27 3.55 30.51 5.33 48.48 5.33 53.9-4.34 4.56-10.58 6.85-18.73 6.85Zm52.55-22.36c1.29-.23 1.93-.88 1.93-1.93 0-1.1-.35-2.3-1.05-3.63a12.9 12.9 0 0 0-2.99-3.86c-3.47-3.12-8.17-4.68-14.1-4.68-2.93 0-5.66.49-8.2 1.46a15 15 0 0 1-6.43-6.5 19.9 19.9 0 0 1-2.4-9.6c0-8.96 3.75-15.89 11.24-20.77 6.43-4.17 14.37-6.26 23.82-6.26 7.02 0 12.93.76 17.73 2.28 4.8 1.49 8.72 3.4 11.76 5.74a24.2 24.2 0 0 1 1.34 8.02c0 2.77-.37 5.28-1.1 7.55a13.12 13.12 0 0 1-3.23 5.44c-1.32-.98-3.72-1.97-7.2-2.99a34.09 34.09 0 0 0-9.47-1.52c-2.85 0-4.76.18-5.74.53-.94.35-1.4.9-1.4 1.64 0 .35.06.68.17 1a21.7 21.7 0 0 1 5.27-.53c7.6 0 13.81 1.79 18.6 5.38 5.66 4.3 8.5 10.73 8.5 19.31 0 7.57-3.07 13.85-9.2 18.84-6.63 5.35-15.54 8.02-26.74 8.02a80 80 0 0 1-16.03-1.4c-4.53-.9-8.94-2.5-13.23-4.8-2.92-4.25-4.39-8.56-4.39-12.93 0-4.41 1.5-8.06 4.5-10.95a15.42 15.42 0 0 1 11.07-4.33c4.4 0 8 .9 10.77 2.7 2.8 1.79 4.87 4.71 6.2 8.77Z"/></mask><path stroke="#000" stroke-linejoin="round" stroke-width="7.82" d="M182.42 67.56v41.14a21.97 21.97 0 0 1-7.2 3.92c-3 1.05-6.65 1.58-10.94 1.58-4.29 0-7.94-.96-10.94-2.87-3.4-2.07-5.1-5-5.1-8.78V64.86h-13.63a22.5 22.5 0 0 1-4.21-13.16c0-3.24.5-6.05 1.52-8.43a15.53 15.53 0 0 1 3.86-5.62h60.51a24.74 24.74 0 0 1 2.81 6.38 26.1 26.1 0 0 1 1.11 7.43c0 4.6-1.01 8-3.04 10.19-2.03 2.14-4.76 3.21-8.2 3.21h-17.14a2.2 2.2 0 0 0-.18.88c0 .7.41 1.17 1.23 1.4.86.28 2.7.42 5.5.42h4.04Zm57.64 5.2c0-3.9-.17-6.57-.52-8.01-.35-1.49-1-2.23-1.93-2.23-.59 0-1.12.2-1.58.59.07.7.2 1.64.35 2.8.15 1.18.23 3.67.23 7.5v3.8a67.37 67.37 0 0 1-.47 8.9l-.11 1.4c.47.4 1 .59 1.58.59.93 0 1.58-.72 1.93-2.17.35-1.48.53-4.17.53-8.07v-5.1Zm-2.34 42.26a42.9 42.9 0 0 1-19.13-4.28 33.82 33.82 0 0 1-13.99-13.16c-3.55-5.93-5.32-13.33-5.32-22.18 0-12.84 3.86-22.86 11.58-30.08 6.87-6.36 15.7-9.54 26.51-9.54 11.75 0 21.03 3.65 27.86 10.94 6.87 7.26 10.3 16.82 10.3 28.68 0 13.18-3.67 23.25-11 30.2-6.67 6.28-15.6 9.42-26.8 9.42Zm154.03-21.13v14.8a21.95 21.95 0 0 1-7.2 3.93c-2.96 1.05-6.6 1.58-10.88 1.58-4.26 0-7.92-.96-11-2.87-3.4-2.07-5.1-5.01-5.1-8.84V43.04c0-3.6 8.8-5.39 26.4-5.39h34.35a25.4 25.4 0 0 1 2.51 6.97c.55 2.53.82 4.81.82 6.84 0 8.94-3.92 13.4-11.76 13.4h-20.25c-1.48 0-2.22.63-2.22 1.88v.4c0 .24.04.4.12.47h25.86a22.25 22.25 0 0 1 2.99 11.47c0 5.31-1.2 9.45-3.57 12.41h-28.68c-.31.31-.47.66-.47 1.05 0 .63.47 1 1.4 1.12.98.11 2.08.17 3.29.17a92 92 0 0 1 3.39.06Zm83.04-57.29c4.68 0 8.74 1.27 12.17 3.8 3.44 2.54 5.15 6.15 5.15 10.83v32.54c0 9.9-3.02 17.55-9.07 22.94-6.05 5.34-14.41 8.01-25.1 8.01-10.65 0-18.94-2.63-24.88-7.9-6.04-5.26-9.07-12.95-9.07-23.05V42.04a24.9 24.9 0 0 1 15.98-5.5c5.07 0 9.09 1.35 12.05 4.04 2.97 2.65 4.45 6.69 4.45 12.11v34.12c.43.31.92.47 1.47.47.58 0 1-.14 1.23-.41.27-.31.4-.88.4-1.7V52.63c0-2.45-.11-4.4-.35-5.85a15.6 15.6 0 0 0-1.4-4.33c4.68-3.9 10.34-5.85 16.97-5.85Zm85.44 77.6c-5.35 0-9.54-.88-12.58-2.64-3.28-1.83-5.05-4.42-5.33-7.78l-.53-5.5c3.6-.86 6.62-3.08 9.08-6.67.66-1.02 1-1.9 1-2.64 0-1.01-.52-1.52-1.53-1.52h-.18c-.03.04-.11.06-.23.06-2.73 5.74-7.16 8.6-13.28 8.6-3.13 0-5.8-.68-8.02-2.04-2.19-1.37-4.2-3.73-6.03-7.09h-.35c-1.05 0-1.58.45-1.58 1.35 0 .63.23 1.33.7 2.1a18.08 18.08 0 0 0 5.85 6.15 12.8 12.8 0 0 0 5.8 2.23l-.47 11.06a24.7 24.7 0 0 1-7.43 3.27c-2.58.7-6.26 1.06-11.06 1.06a28.2 28.2 0 0 1-12.76-2.81c-4.6-2.3-6.9-5.5-6.9-9.6 0-5.11 1-17.73 3.04-37.86a481.28 481.28 0 0 1 2.63-22c4.02-3.6 9.95-5.39 17.8-5.39 5.69 0 10.4 1.05 14.15 3.16l3.22 10.77-2.05 8.6a6.58 6.58 0 0 0-.23 1.7c0 1.36.78 2.07 2.34 2.1l5.56-23.11c1.6-.86 3.69-1.6 6.26-2.22 2.58-.67 5.38-1 8.43-1 5.7 0 9.9.98 12.64 2.93 2.77 1.9 4.4 5.15 4.91 9.71.12.86.3 2.28.53 4.27 3.55 30.51 5.33 48.48 5.33 53.9-4.34 4.56-10.58 6.85-18.73 6.85Zm52.55-22.36c1.29-.23 1.93-.88 1.93-1.93 0-1.1-.35-2.3-1.05-3.63a12.9 12.9 0 0 0-2.99-3.86c-3.47-3.12-8.17-4.68-14.1-4.68-2.93 0-5.66.49-8.2 1.46a15 15 0 0 1-6.43-6.5 19.9 19.9 0 0 1-2.4-9.6c0-8.96 3.75-15.89 11.24-20.77 6.43-4.17 14.37-6.26 23.82-6.26 7.02 0 12.93.76 17.73 2.28 4.8 1.49 8.72 3.4 11.76 5.74a24.2 24.2 0 0 1 1.34 8.02c0 2.77-.37 5.28-1.1 7.55a13.12 13.12 0 0 1-3.23 5.44c-1.32-.98-3.72-1.97-7.2-2.99a34.09 34.09 0 0 0-9.47-1.52c-2.85 0-4.76.18-5.74.53-.94.35-1.4.9-1.4 1.64 0 .35.06.68.17 1a21.7 21.7 0 0 1 5.27-.53c7.6 0 13.81 1.79 18.6 5.38 5.66 4.3 8.5 10.73 8.5 19.31 0 7.57-3.07 13.85-9.2 18.84-6.63 5.35-15.54 8.02-26.74 8.02a80 80 0 0 1-16.03-1.4c-4.53-.9-8.94-2.5-13.23-4.8-2.92-4.25-4.39-8.56-4.39-12.93 0-4.41 1.5-8.06 4.5-10.95a15.42 15.42 0 0 1 11.07-4.33c4.4 0 8 .9 10.77 2.7 2.8 1.79 4.87 4.71 6.2 8.77Z" mask="url(#h)"/><path fill="#B7D7FF" d="M319.04 72.75c0-3.9-.17-6.58-.52-8.02-.35-1.48-1-2.22-1.93-2.22-.59 0-1.12.2-1.58.58.07.7.2 1.64.35 2.81.15 1.17.23 3.67.23 7.5v3.8a67.37 67.37 0 0 1-.47 8.89l-.11 1.4c.46.4 1 .59 1.58.59.93 0 1.58-.72 1.93-2.17.35-1.48.52-4.17.52-8.07v-5.1ZM316.7 115a42.9 42.9 0 0 1-19.13-4.27 33.82 33.82 0 0 1-13.99-13.17c-3.55-5.93-5.32-13.32-5.32-22.18 0-12.83 3.86-22.86 11.58-30.08 6.87-6.36 15.7-9.54 26.51-9.54 11.75 0 21.03 3.65 27.86 10.95 6.86 7.25 10.3 16.81 10.3 28.67 0 13.19-3.67 23.25-11 30.2-6.68 6.28-15.61 9.42-26.8 9.42Z"/><path fill="url(#i)" d="M320.48 71.46c0-3.9-.18-6.57-.53-8.02-.35-1.48-1-2.22-1.93-2.22-.59 0-2.4.73-2.86 1.12 0 1.95.5 1.43.65 2.6.15 1.17 1.21 3.34 1.21 7.17v3.8a67.37 67.37 0 0 1-.46 8.9c-.04.46-.71 1.81-.75 2.28.47.39 1.37.65 1.95.65.94 0 1.84-1.67 2.19-3.11.35-1.48.53-4.18.53-8.08v-5.09Zm-2.34 42.25a42.9 42.9 0 0 1-19.14-4.27 33.82 33.82 0 0 1-13.99-13.17c-3.55-5.93-5.32-13.32-5.32-22.17 0-12.84 3.86-22.87 11.58-30.08 6.87-6.36 15.7-9.54 26.52-9.54 11.74 0 21.02 3.64 27.85 10.94 6.87 7.26 10.3 16.81 10.3 28.68 0 13.18-3.67 23.25-11 30.2-6.67 6.27-15.6 9.41-26.8 9.41Z"/><path fill="#000" fill-rule="evenodd" d="M295.74 114.24h.01l.02.01a46.8 46.8 0 0 0 20.85 4.67c11.96 0 21.93-3.37 29.48-10.48h.01c6.22-5.9 9.96-13.64 11.46-22.97V65.9c-1.44-8.53-4.93-15.87-10.6-21.87-7.7-8.21-18.08-12.17-30.7-12.17-11.63 0-21.46 3.45-29.16 10.58l-.02.01c-6.78 6.34-10.8 14.54-12.23 24.35a60.3 60.3 0 0 1 .04 17.52 41.33 41.33 0 0 0 5.25 15.25v.01c3.9 6.49 9.1 11.4 15.59 14.65Zm48.39-67.52c-6.83-7.3-16.12-10.94-27.86-10.94-10.8 0-19.64 3.18-26.5 9.54-7.73 7.22-11.6 17.24-11.6 30.08 0 8.85 1.78 16.25 5.33 22.18a33.83 33.83 0 0 0 13.99 13.16 42.9 42.9 0 0 0 19.13 4.28c11.2 0 20.13-3.14 26.8-9.43 7.34-6.94 11-17 11-30.2 0-11.85-3.43-21.41-10.3-28.67Z" clip-rule="evenodd"/><path fill="#000" d="M315.3 66.1a72.89 72.89 0 0 1 .21 7.3v4.46a61.2 61.2 0 0 1-.33 6.74l-.05.53v.02l-.09.96-.11 1.4c.46.4 1 .59 1.58.59.38 0 .72-.13 1-.37.33-.28.6-.72.8-1.33v-.02l.13-.45c.15-.64.27-1.5.35-2.59.12-1.44.17-3.26.17-5.48v-5.1c0-3.31-.12-5.74-.38-7.28-.04-.27-.1-.52-.14-.73-.22-.93-.56-1.57-1.01-1.92-.27-.2-.58-.3-.92-.3-.59 0-1.12.19-1.58.58.06.62.16 1.42.3 2.4v.02l.05.39.02.18Z"/><mask id="k" width="132.99" height="158.12" x=".61" y="-2.06" fill="#000" maskUnits="userSpaceOnUse"><path fill="#fff" d="M.61-2.06H133.6v158.12H.61z"/><path fill-rule="evenodd" d="M80.75 78.43c6.87-.4 8.18-1.3 10.7-3.02l.22-.15.07-.05.13-.08c2.81-1.91 6.25-1.8 7.92-.08 1.66 1.73 4.95 6.5 6.5 11.89 1.53 5.38 1.48 7.05-.26 7.66-1.06.37-3.26.33-5.83.29a90.3 90.3 0 0 0-5.2.01c-4.48.19-9.67 1.02-17.33 3.77-3.14 1.12-6.47 2.64-9.61 4.07-4.52 2.05-8.66 3.94-11.31 4.24-4.5.52-7.55-.91-7.74-5.59-.19-4.67 3.54-13.22 6.76-17.11 3.23-3.9 7.1-6.77 12.27-6.6 2 .06 3.26.25 4.5.44 1.93.3 3.77.57 8.2.3ZM68.04 88c0-.09.04-.4.1-.8.1-.77.23-1.2.33-1.85.02-.13.37.02.57.57l.26.68c.18.44.35.79.48.8l4.47.14c4.13.14 8.95-.04 13.1-.57 4.15-.53 8.33-2.06 9.08-4.03.23-.62.47-1.3.67-1.98.46-1.54.77-3.16.57-4.32-.29-1.68-1.99-2.4-6.55.45-4.57 2.85-9.04 2.7-14.54 2.52-2.1-.06-3.75-.22-5.16-.34-2.27-.21-3.92-.37-5.85-.02-3.11.57-6.33 4.13-6.7 5.12a2.2 2.2 0 0 0-.1.33c-.16.74.42 1.05 3.14 1.43 3.08.44 3.41.78 4.09 1.14.68.36 2.03 1.07 2.04.73Zm2.38.75c-.27-.01-1.06.85-1.41 1.29-.68-.36-3.4-1.45-4.08-1.8-.67-.36-2.06-.07-3.42-.45-1.37-.38-3.42-.78-4.48.18-1.07.97-2.55 4.26-2.65 7.25-.1 3-.13 4 3.62 5.12 3 .9 7.53 1.25 9.96.67.31-.08 1.75-1.08 5.94-2.81 5.23-2.16 11.47-3.3 14.93-3.84 3.46-.56 5.86-.48 6.2-.47 1.73.06 4.21-2.2 4.25-3.53.05-1.33-.93-3.03-1.57-4.38-.65-1.36-2.06-.4-3.46.55-1.41.96-5.57 1.82-10.4 2-4.82.17-13.08.23-13.43.22Zm5-36.84c.89 1.03 2.5 3.49 1.9 5.07a4.76 4.76 0 0 1-2.15 2.6c.03 2.55-.49 8.58-2.81 12.24-2.02 3.17-5.96 4.2-9.42 3.81-1.52-.17-2.95-.6-4.09-1.26-3.72-2.12-7.74-5.25-9.19-13.64-.94-5.44-.67-7.9-.55-8.95.06-.57.08-.73-.16-.74-.37-.01-1.03-.03-1.72.05a4.4 4.4 0 0 0-1.74.5c-1.06.64-1-1.03 1.83-3.27 1.96-1.55 4.52-.55 7.26 1.89a53.78 53.78 0 0 0 4.26 3.5c4.37 3.11 8.5 3.27 11.95 3.05 3.45-.22 5.54-1.15 4.63-4.85Zm-16.7 5.79c4 3.6 11.71 2.94 15.06 2.16.24-.1.6.62.2 4.34-.5 4.65-2.74 10.25-10.32 10.33-7.57.09-11.43-8.04-12.36-11.4-.92-3.37-1.66-12.07-.64-11.7 1.02.37 3.04 1.77 8.05 6.27Zm24.91-4.18c-.48.65-1.45 2.28-1.5 3.61a5 5 0 0 0 .6 2.7c.27.41.61.68 1.01.7-.06 1.99.09 8 3.45 10.44a8.1 8.1 0 0 0 3.4 1.44c2.87.49 6.1-.62 8.39-4.05 2.6-3.92 3.09-13.8 2.97-17.24l.9.01c1.31 0 2.94.02 4.25.49 2.04.73.74-1.64-1.29-2.71l-.18-.1c-.17-.1-.38-.21-.5-.26-2.8-1.02-5.34-1.95-9.69 1.69-.48.4-1.22.98-1.96 1.57-.96.76-1.93 1.53-2.44 1.97-3.02 2.21-3.96 2.85-5.79 2.79-1.75-.06-1.7-1.35-1.64-2.67l.02-.38Zm4.93 17.5c-3.79-2-3.87-7.91-3.44-10.45 2.06.06 4.16-1.81 7.37-4.43 3.54-2.88 6.36-4.8 8.43-5.06.33.35-.33 10-1.86 14.61-1.53 4.62-5.76 7.82-10.5 5.33Z" clip-rule="evenodd"/><path d="M63.04 62.17c1.1-2.04 4.22-2.86 5.48.85 1.25 3.71-1.62 7.28-3.65 6.22-2.03-1.07-2.93-5.02-1.83-7.07Zm28.31-2.73c-1.36-.38-3.45.22-3.89 3.2-.44 3 1.22 4.71 2.6 4.76 1.37.04 3.5-1.55 3.25-4.56-.2-2.41-1.39-3.27-1.96-3.4ZM74.64 44.22c-.11 3.44-1.4 7.22-8.11 6.07-2.3-.4-4.38-2.39-6.4-4.33l-1.45-1.36c-2.83-2.57-5.44-4.93-7.64-4.83-3.31.16-6.96 2.33-7.33 3.1.77-2.65 5.24-8.77 8.58-9.72 3.36-.97 5.69 1.23 8.37 4.36.64.75 1.23 1.44 1.75 1.97.31.33 1.33 1.65 2.1 2.65l.87 1.12c1.89 2.3 4.64 2.85 9.26.97Zm9.63.31c-1.35 2.63 0 6 2.9 6.1 1.26.04 3.47-1.8 5.84-3.77 2.8-2.33 5.82-4.85 7.86-4.78 2.73.09 4.29.56 5.08 1.95-.2-2.4-2.78-5.7-5.97-6.31-4.1-.8-6.01 1.3-9.1 4.7-2.86 3.14-5.29 3.82-6.61 2.11Z"/><path fill-rule="evenodd" d="M60.84 12.17c-1.03-.04-18.43-4.6-21.87-4.72-3.44-.12-16.52-.21-25.42 8.83C4.65 25.32 5 46.34 9.02 59.81c4.03 13.47 16.62 28.56 20.93 54.37 4.31 25.82 7.43 35.6 15.65 36.86 8.22 1.27 13.6-5.22 16.16-9.8 2.56-4.59 4.78-9.18 8.4-14.73 2.9-4.44 5.71-6.15 6.75-6.45.92-.08 3.1 1.84 4.49 10.15 1.72 10.4 4.3 15.81 7.67 17.93 3.37 2.1 7.5 1.91 13.5-2.56s14.04-18.54 21.16-46.65c7.12-28.1 6.77-59.46 4.7-69.53-2.08-10.08-10.62-22.7-22.23-25.41-11.61-2.72-21.7.62-27.97 2.75a594.62 594.62 0 0 1-17.39 5.43Zm9.9 2.66c2.46.35 7.01-.55 8.98-1.04.3-.07-.16.57-1.76 1.21-1.98.8-5.67 1.58-11.74 1.01-6.8-.63-12.52-2.26-16.94-3.52-2.72-.77-4.94-1.4-6.64-1.59-4.46-.48-24.05-1.46-30 12.02-5.95 13.48-1.79 33.62 1.72 42.07 1.28 3.09 3.18 7 5.22 11.2 3.55 7.32 7.55 15.55 9.52 21.96 1.33 4.33 2.64 11.23 3.96 18.32l.26 1.42c1.67 9 3.34 18.02 5.07 22.24 3.19 7.78 6.92 9.24 12.85 7.1 4.4-1.6 7.96-6.88 10.71-11.78.79-1.4 1.5-2.77 2.16-4.01l.16-.3c.08-.17.16-.33.25-.48 2.93-5.57 8.69-13.05 14.55-13.53 5.87-.47 8.22 1.27 8.56 1.62.14.14-.02.1-.4 0a11.58 11.58 0 0 0-3.67-.43c-1.4.08-2.86.35-3.51.51 1.1 1.37 3.53 5.59 4.44 11.48 1.14 7.38 1.26 14.2 8.46 14.95 6.02.64 11.89-2.95 17.68-15.5a100.1 100.1 0 0 0 3.42-8.48c6.9-19.44 11.39-42.97 12.56-67.94 1.16-24.97-4.4-33.82-11.39-41.05-6.99-7.23-20.74-7.69-28.05-5.26a679.44 679.44 0 0 1-20.86 6.32c.25.2.84.53 1.75.84.7.25 1.6.49 2.68.64Z" clip-rule="evenodd"/><path fill-rule="evenodd" d="M73.78 59.86c-3.35.78-11.06 1.44-15.07-2.16-5.01-4.5-7.03-5.9-8.05-6.27-1.02-.37-.28 8.33.64 11.7.93 3.36 4.79 11.49 12.36 11.4 7.58-.08 9.83-5.68 10.33-10.33.4-3.72.03-4.44-.2-4.34Zm-5.26 3.16c-1.26-3.7-4.38-2.9-5.48-.85-1.1 2.05-.2 6 1.83 7.07 2.03 1.06 4.9-2.5 3.65-6.22Zm16.6-2.45c-.43 2.54-.35 8.45 3.44 10.45 4.74 2.49 8.97-.7 10.5-5.33 1.53-4.61 2.2-14.26 1.86-14.6-2.07.26-4.89 2.17-8.43 5.05-3.2 2.62-5.3 4.5-7.37 4.43Zm2.34 2.07c.44-2.98 2.53-3.58 3.9-3.2.56.13 1.75.99 1.95 3.4.24 3-1.88 4.6-3.25 4.56-1.38-.05-3.04-1.77-2.6-4.76Z" clip-rule="evenodd"/><path d="M69 90.05c.36-.44 1.15-1.3 1.42-1.3.35.02 8.61-.04 13.44-.22 4.82-.17 8.98-1.03 10.39-1.99 1.4-.95 2.81-1.9 3.46-.55.64 1.35 1.62 3.05 1.57 4.38-.04 1.34-2.52 3.59-4.24 3.53-.35 0-2.75-.09-6.21.47-3.46.55-9.7 1.68-14.93 3.84-4.19 1.73-5.63 2.73-5.94 2.8-2.43.6-6.96.24-9.96-.66-3.75-1.12-3.72-2.12-3.62-5.12.1-3 1.58-6.28 2.65-7.25 1.06-.96 3.11-.56 4.48-.18 1.36.38 2.75.09 3.42.44.68.36 3.4 1.45 4.08 1.8Zm15.5 40.26c1.13 7.38 1.25 14.2 8.45 14.95 6.02.64 11.89-2.95 17.68-15.5-4.8 7.18-10.27 11.67-15.46 12.58-5.2.9-7.13-2.99-7.56-10.92-.34-6.35-2.84-11.38-4.05-13.1-1.4.08-2.86.35-3.51.51 1.1 1.37 3.53 5.59 4.44 11.48Z"/><path d="M38.39 140.13c3.19 7.78 6.92 9.24 12.85 7.1 4.4-1.6 7.96-6.88 10.71-11.78-3.47 3.82-11.55 10.81-16.1 8.26-3-1.67-4.93-5.57-6.45-11.52-.15-.57-.3-1.5-.52-2.7-.34-1.96-.8-4.65-1.55-7.8-.55-2.35-1.09-5.23-1.62-8.11-.64-3.41-1.27-6.83-1.94-9.36-3.1-11.77-4.36-15.51-7.55-21.58-10.68-20.36-15.4-35.52-15.19-42.18l.04-2c.09-8.86.26-25.76 25.76-27.08 4.47-.23 7.9.51 13.01 2.01 5.12 1.5 12.17 3.45 17.8 3.26 8.63-.3 9.5-.9 10.32-1.65-1.98.8-5.67 1.58-11.74 1.01-6.8-.63-12.52-2.26-16.94-3.52-2.72-.77-4.94-1.4-6.64-1.59-4.46-.48-24.05-1.46-30 12.02-5.95 13.48-1.79 33.62 1.72 42.07 1.28 3.09 3.18 7 5.22 11.2 3.55 7.32 7.55 15.55 9.52 21.96 1.33 4.33 2.64 11.23 3.96 18.32l.26 1.42c1.67 9 3.34 18.02 5.07 22.24Zm48.8-69.16c-3.36-2.44-3.51-8.45-3.45-10.45-.4-.01-.74-.28-1-.7l-.03.53c-.09 1.33-.19 3.03 1.5 7.19 1.06 2.65 2.29 3.4 3.64 4.12.77.4 2.04.73 2.73.75a8.1 8.1 0 0 1-3.4-1.44Z"/><path d="M58.85 74.37c-3.72-2.12-7.74-5.25-9.19-13.64-.94-5.44-.67-7.9-.55-8.95.06-.57.08-.73-.16-.74-.37-.01-1.03-.03-1.72.05a32.5 32.5 0 0 0 2.93 15.33 17.06 17.06 0 0 0 8 8.26c1.5.7 4.05 1.1 4.78.95-1.52-.17-2.95-.6-4.09-1.26Z"/><path fill-rule="evenodd" d="M79.72 13.79c.3-.07-.16.57-1.76 1.21-.81.75-1.7 1.34-10.33 1.65-5.62.2-12.67-1.76-17.79-3.26-5.11-1.5-8.54-2.24-13.01-2.01-25.5 1.32-25.67 18.22-25.76 27.08 0 .73-.02 1.4-.04 2-.21 6.66 4.5 21.82 15.2 42.18 3.18 6.07 4.44 9.81 7.54 21.58.67 2.53 1.3 5.95 1.94 9.36.53 2.88 1.07 5.76 1.62 8.1.75 3.16 1.22 5.85 1.55 7.8.21 1.21.37 2.14.52 2.71 1.52 5.95 3.46 9.85 6.44 11.52 4.56 2.55 12.64-4.44 16.11-8.26.79-1.4 1.5-2.77 2.16-4.01l.16-.3c.08-.17.16-.33.25-.48 2.93-5.57 8.69-13.05 14.55-13.53 5.87-.47 8.22 1.27 8.56 1.62.14.14-.02.1-.4 0a11.58 11.58 0 0 0-3.67-.43c1.2 1.72 3.7 6.75 4.05 13.1.43 7.93 2.36 11.83 7.56 10.92 5.19-.91 10.66-5.4 15.46-12.58a100.1 100.1 0 0 0 3.42-8.48c6.9-19.44 11.39-42.97 12.56-67.94 1.16-24.97-4.4-33.82-11.39-41.05-6.99-7.23-20.74-7.69-28.05-5.26a679.44 679.44 0 0 1-20.86 6.32c.25.2.84.53 1.75.84a24 24 0 0 0 5.55-1.35c1.69-.61 3.59-1.05 4.15-.53a8.96 8.96 0 0 0 1.96 1.48Zm11.95 61.47.07-.05.13-.08c2.81-1.91 6.25-1.8 7.92-.08 1.66 1.73 4.95 6.5 6.5 11.89 1.53 5.38 1.48 7.05-.26 7.66-1.06.37-3.26.33-5.83.29a90.3 90.3 0 0 0-5.2.01c-4.48.19-9.67 1.02-17.33 3.77-3.14 1.12-6.47 2.64-9.61 4.07-4.52 2.05-8.66 3.94-11.31 4.24-4.5.52-7.55-.91-7.74-5.59-.19-4.67 3.54-13.22 6.76-17.11 3.23-3.9 7.1-6.77 12.27-6.6 2 .06 3.26.25 4.5.44 1.93.3 3.77.57 8.2.3 6.88-.4 8.19-1.29 10.72-3.01l.2-.15ZM75.42 51.91c.89 1.03 2.5 3.49 1.9 5.07a4.76 4.76 0 0 1-2.15 2.6c.03 2.55-.49 8.58-2.81 12.24-2.02 3.17-5.96 4.2-9.42 3.81-.73.16-3.28-.26-4.79-.95a17.06 17.06 0 0 1-7.99-8.26 32.5 32.5 0 0 1-2.93-15.33 4.4 4.4 0 0 0-1.74.5c-1.06.64-1-1.03 1.83-3.27 1.96-1.55 4.52-.55 7.26 1.89a53.78 53.78 0 0 0 4.26 3.5c4.37 3.11 8.5 3.27 11.95 3.05 3.45-.22 5.54-1.15 4.63-4.85Zm8.21 1.6c-.48.66-1.45 2.3-1.5 3.62a5 5 0 0 0 .6 2.7l-.02.52c-.09 1.33-.19 3.03 1.5 7.19 1.06 2.65 2.29 3.4 3.64 4.12.77.4 2.04.73 2.73.75 2.88.49 6.1-.62 8.4-4.05 2.6-3.92 3.09-13.8 2.97-17.24l.9.01c1.31 0 2.94.02 4.25.49 2.04.73.74-1.64-1.29-2.71l-.18-.1c-.17-.1-.38-.21-.5-.26-2.8-1.02-5.34-1.95-9.69 1.69-.48.4-1.22.98-1.96 1.57-.96.76-1.93 1.53-2.44 1.97-3.02 2.21-3.96 2.85-5.79 2.79-1.75-.06-1.7-1.35-1.64-2.67l.02-.38Zm-8.99-9.3c-.11 3.45-1.4 7.23-8.11 6.08-2.3-.4-4.38-2.39-6.4-4.33l-1.45-1.36c-2.83-2.57-5.44-4.93-7.64-4.83-3.31.16-6.96 2.33-7.33 3.1.77-2.65 5.24-8.77 8.58-9.72 3.36-.97 5.69 1.23 8.37 4.36.64.75 1.23 1.44 1.75 1.97.31.33 1.33 1.65 2.1 2.65l.87 1.12c1.89 2.3 4.64 2.85 9.26.97Zm9.63.32c-1.35 2.63 0 6 2.9 6.1 1.26.04 3.47-1.8 5.84-3.77 2.8-2.33 5.82-4.85 7.86-4.78 2.73.09 4.29.56 5.08 1.95-.2-2.4-2.78-5.7-5.97-6.31-4.1-.8-6.01 1.3-9.1 4.7-2.86 3.14-5.29 3.82-6.61 2.11Z" clip-rule="evenodd"/><path d="M70.74 14.83c2.46.35 7.01-.55 8.98-1.04-.21 0-1.3-.86-1.96-1.48-.56-.52-2.46-.08-4.15.53a24 24 0 0 1-5.55 1.35c.7.25 1.6.49 2.68.64ZM66 87.28c.68.36 2.03 1.07 2.04.73 0-.09.04-.4.1-.8-.14.04-.5.12-.77.11-.17 0-.68-.27-1.27-.58-.59-.31-1.27-.67-1.78-.85-1.02-.37-3.42-.45-4.46-.48-.82-.03-1.07-.48-1.1-.7-.15.74.43 1.05 3.15 1.43 3.08.44 3.41.78 4.09 1.14Z"/><path fill-rule="evenodd" d="M68.47 85.36c-.1.65-.23 1.08-.33 1.84-.14.05-.5.13-.77.12-.17 0-.68-.27-1.27-.58-.59-.31-1.27-.67-1.78-.85-1.02-.37-3.42-.45-4.46-.48-.82-.03-1.07-.48-1.1-.7l.1-.33c.38-.99 3.6-4.55 6.71-5.12 1.93-.35 3.58-.2 5.85.02 1.4.12 3.05.28 5.16.34 5.5.19 9.97.33 14.54-2.52 4.56-2.85 6.26-2.13 6.55-.45.2 1.16-.1 2.78-.57 4.32-.33.54-1.1 1.8-1.71 2.27-3.53 2.75-4.64 2-5.24 2.17-.27.07-.45.45-1.4.62-2.44.42-6.88.92-10.35.99-3.3.07-8.95.04-9.1-.41l-.26-.68c-.2-.55-.55-.7-.57-.57Z" clip-rule="evenodd"/><path d="M87.35 86.98c4.15-.53 8.33-2.06 9.08-4.03.23-.62.47-1.3.67-1.98-.33.54-1.1 1.8-1.71 2.27-3.53 2.75-4.64 2-5.24 2.17-.27.07-.45.45-1.4.62-2.44.42-6.88.92-10.35.99-3.3.07-8.95.04-9.1-.41.18.44.35.79.48.8l4.47.14c4.13.14 8.95-.04 13.1-.57Z"/></mask><path fill="#000" fill-rule="evenodd" d="M80.75 78.43c6.87-.4 8.18-1.3 10.7-3.02l.22-.15.07-.05.13-.08c2.81-1.91 6.25-1.8 7.92-.08 1.66 1.73 4.95 6.5 6.5 11.89 1.53 5.38 1.48 7.05-.26 7.66-1.06.37-3.26.33-5.83.29a90.3 90.3 0 0 0-5.2.01c-4.48.19-9.67 1.02-17.33 3.77-3.14 1.12-6.47 2.64-9.61 4.07-4.52 2.05-8.66 3.94-11.31 4.24-4.5.52-7.55-.91-7.74-5.59-.19-4.67 3.54-13.22 6.76-17.11 3.23-3.9 7.1-6.77 12.27-6.6 2 .06 3.26.25 4.5.44 1.93.3 3.77.57 8.2.3ZM68.04 88c0-.09.04-.4.1-.8.1-.77.23-1.2.33-1.85.02-.13.37.02.57.57l.26.68c.18.44.35.79.48.8l4.47.14c4.13.14 8.95-.04 13.1-.57 4.15-.53 8.33-2.06 9.08-4.03.23-.62.47-1.3.67-1.98.46-1.54.77-3.16.57-4.32-.29-1.68-1.99-2.4-6.55.45-4.57 2.85-9.04 2.7-14.54 2.52-2.1-.06-3.75-.22-5.16-.34-2.27-.21-3.92-.37-5.85-.02-3.11.57-6.33 4.13-6.7 5.12a2.2 2.2 0 0 0-.1.33c-.16.74.42 1.05 3.14 1.43 3.08.44 3.41.78 4.09 1.14.68.36 2.03 1.07 2.04.73Zm2.38.75c-.27-.01-1.06.85-1.41 1.29-.68-.36-3.4-1.45-4.08-1.8-.67-.36-2.06-.07-3.42-.45-1.37-.38-3.42-.78-4.48.18-1.07.97-2.55 4.26-2.65 7.25-.1 3-.13 4 3.62 5.12 3 .9 7.53 1.25 9.96.67.31-.08 1.75-1.08 5.94-2.81 5.23-2.16 11.47-3.3 14.93-3.84 3.46-.56 5.86-.48 6.2-.47 1.73.06 4.21-2.2 4.25-3.53.05-1.33-.93-3.03-1.57-4.38-.65-1.36-2.06-.4-3.46.55-1.41.96-5.57 1.82-10.4 2-4.82.17-13.08.23-13.43.22Zm5-36.84c.89 1.03 2.5 3.49 1.9 5.07a4.76 4.76 0 0 1-2.15 2.6c.03 2.55-.49 8.58-2.81 12.24-2.02 3.17-5.96 4.2-9.42 3.81-1.52-.17-2.95-.6-4.09-1.26-3.72-2.12-7.74-5.25-9.19-13.64-.94-5.44-.67-7.9-.55-8.95.06-.57.08-.73-.16-.74-.37-.01-1.03-.03-1.72.05a4.4 4.4 0 0 0-1.74.5c-1.06.64-1-1.03 1.83-3.27 1.96-1.55 4.52-.55 7.26 1.89a53.78 53.78 0 0 0 4.26 3.5c4.37 3.11 8.5 3.27 11.95 3.05 3.45-.22 5.54-1.15 4.63-4.85Zm-16.7 5.79c4 3.6 11.71 2.94 15.06 2.16.24-.1.6.62.2 4.34-.5 4.65-2.74 10.25-10.32 10.33-7.57.09-11.43-8.04-12.36-11.4-.92-3.37-1.66-12.07-.64-11.7 1.02.37 3.04 1.77 8.05 6.27Zm24.91-4.18c-.48.65-1.45 2.28-1.5 3.61a5 5 0 0 0 .6 2.7c.27.41.61.68 1.01.7-.06 1.99.09 8 3.45 10.44a8.1 8.1 0 0 0 3.4 1.44c2.87.49 6.1-.62 8.39-4.05 2.6-3.92 3.09-13.8 2.97-17.24l.9.01c1.31 0 2.94.02 4.25.49 2.04.73.74-1.64-1.29-2.71l-.18-.1c-.17-.1-.38-.21-.5-.26-2.8-1.02-5.34-1.95-9.69 1.69-.48.4-1.22.98-1.96 1.57-.96.76-1.93 1.53-2.44 1.97-3.02 2.21-3.96 2.85-5.79 2.79-1.75-.06-1.7-1.35-1.64-2.67l.02-.38Zm4.93 17.5c-3.79-2-3.87-7.91-3.44-10.45 2.06.06 4.16-1.81 7.37-4.43 3.54-2.88 6.36-4.8 8.43-5.06.33.35-.33 10-1.86 14.61-1.53 4.62-5.76 7.82-10.5 5.33Z" clip-rule="evenodd"/><path fill="#000" d="M63.04 62.17c1.1-2.04 4.22-2.86 5.48.85 1.25 3.71-1.62 7.28-3.65 6.22-2.03-1.07-2.93-5.02-1.83-7.07Zm28.31-2.73c-1.36-.38-3.45.22-3.89 3.2-.44 3 1.22 4.71 2.6 4.76 1.37.04 3.5-1.55 3.25-4.56-.2-2.41-1.39-3.27-1.96-3.4ZM74.64 44.22c-.11 3.44-1.4 7.22-8.11 6.07-2.3-.4-4.38-2.39-6.4-4.33l-1.45-1.36c-2.83-2.57-5.44-4.93-7.64-4.83-3.31.16-6.96 2.33-7.33 3.1.77-2.65 5.24-8.77 8.58-9.72 3.36-.97 5.69 1.23 8.37 4.36.64.75 1.23 1.44 1.75 1.97.31.33 1.33 1.65 2.1 2.65l.87 1.12c1.89 2.3 4.64 2.85 9.26.97Zm9.63.31c-1.35 2.63 0 6 2.9 6.1 1.26.04 3.47-1.8 5.84-3.77 2.8-2.33 5.82-4.85 7.86-4.78 2.73.09 4.29.56 5.08 1.95-.2-2.4-2.78-5.7-5.97-6.31-4.1-.8-6.01 1.3-9.1 4.7-2.86 3.14-5.29 3.82-6.61 2.11Z"/><path fill="#000" fill-rule="evenodd" d="M60.84 12.17c-1.03-.04-18.43-4.6-21.87-4.72-3.44-.12-16.52-.21-25.42 8.83C4.65 25.32 5 46.34 9.02 59.81c4.03 13.47 16.62 28.56 20.93 54.37 4.31 25.82 7.43 35.6 15.65 36.86 8.22 1.27 13.6-5.22 16.16-9.8 2.56-4.59 4.78-9.18 8.4-14.73 2.9-4.44 5.71-6.15 6.75-6.45.92-.08 3.1 1.84 4.49 10.15 1.72 10.4 4.3 15.81 7.67 17.93 3.37 2.1 7.5 1.91 13.5-2.56s14.04-18.54 21.16-46.65c7.12-28.1 6.77-59.46 4.7-69.53-2.08-10.08-10.62-22.7-22.23-25.41-11.61-2.72-21.7.62-27.97 2.75a594.62 594.62 0 0 1-17.39 5.43Zm9.9 2.66c2.46.35 7.01-.55 8.98-1.04.3-.07-.16.57-1.76 1.21-1.98.8-5.67 1.58-11.74 1.01-6.8-.63-12.52-2.26-16.94-3.52-2.72-.77-4.94-1.4-6.64-1.59-4.46-.48-24.05-1.46-30 12.02-5.95 13.48-1.79 33.62 1.72 42.07 1.28 3.09 3.18 7 5.22 11.2 3.55 7.32 7.55 15.55 9.52 21.96 1.33 4.33 2.64 11.23 3.96 18.32l.26 1.42c1.67 9 3.34 18.02 5.07 22.24 3.19 7.78 6.92 9.24 12.85 7.1 4.4-1.6 7.96-6.88 10.71-11.78.79-1.4 1.5-2.77 2.16-4.01l.16-.3c.08-.17.16-.33.25-.48 2.93-5.57 8.69-13.05 14.55-13.53 5.87-.47 8.22 1.27 8.56 1.62.14.14-.02.1-.4 0a11.58 11.58 0 0 0-3.67-.43c-1.4.08-2.86.35-3.51.51 1.1 1.37 3.53 5.59 4.44 11.48 1.14 7.38 1.26 14.2 8.46 14.95 6.02.64 11.89-2.95 17.68-15.5a100.1 100.1 0 0 0 3.42-8.48c6.9-19.44 11.39-42.97 12.56-67.94 1.16-24.97-4.4-33.82-11.39-41.05-6.99-7.23-20.74-7.69-28.05-5.26a679.44 679.44 0 0 1-20.86 6.32c.25.2.84.53 1.75.84.7.25 1.6.49 2.68.64Z" clip-rule="evenodd"/><path fill="#fff" fill-rule="evenodd" d="M73.78 59.86c-3.35.78-11.06 1.44-15.07-2.16-5.01-4.5-7.03-5.9-8.05-6.27-1.02-.37-.28 8.33.64 11.7.93 3.36 4.79 11.49 12.36 11.4 7.58-.08 9.83-5.68 10.33-10.33.4-3.72.03-4.44-.2-4.34Zm-5.26 3.16c-1.26-3.7-4.38-2.9-5.48-.85-1.1 2.05-.2 6 1.83 7.07 2.03 1.06 4.9-2.5 3.65-6.22Zm16.6-2.45c-.43 2.54-.35 8.45 3.44 10.45 4.74 2.49 8.97-.7 10.5-5.33 1.53-4.61 2.2-14.26 1.86-14.6-2.07.26-4.89 2.17-8.43 5.05-3.2 2.62-5.3 4.5-7.37 4.43Zm2.34 2.07c.44-2.98 2.53-3.58 3.9-3.2.56.13 1.75.99 1.95 3.4.24 3-1.88 4.6-3.25 4.56-1.38-.05-3.04-1.77-2.6-4.76Z" clip-rule="evenodd"/><path fill="#fff" d="M69 90.05c.36-.44 1.15-1.3 1.42-1.3.35.02 8.61-.04 13.44-.22 4.82-.17 8.98-1.03 10.39-1.99 1.4-.95 2.81-1.9 3.46-.55.64 1.35 1.62 3.05 1.57 4.38-.04 1.34-2.52 3.59-4.24 3.53-.35 0-2.75-.09-6.21.47-3.46.55-9.7 1.68-14.93 3.84-4.19 1.73-5.63 2.73-5.94 2.8-2.43.6-6.96.24-9.96-.66-3.75-1.12-3.72-2.12-3.62-5.12.1-3 1.58-6.28 2.65-7.25 1.06-.96 3.11-.56 4.48-.18 1.36.38 2.75.09 3.42.44.68.36 3.4 1.45 4.08 1.8Z"/><path fill="#B7D7FF" d="M84.5 130.31c1.13 7.38 1.25 14.2 8.45 14.95 6.02.64 11.89-2.95 17.68-15.5-4.8 7.18-10.27 11.67-15.46 12.58-5.2.9-7.13-2.99-7.56-10.92-.34-6.35-2.84-11.38-4.05-13.1-1.4.08-2.86.35-3.51.51 1.1 1.37 3.53 5.59 4.44 11.48Z"/><path fill="#B7D6FF" d="M38.39 140.13c3.19 7.78 6.92 9.24 12.85 7.1 4.4-1.6 7.96-6.88 10.71-11.78-3.47 3.82-11.55 10.81-16.1 8.26-3-1.67-4.93-5.57-6.45-11.52-.15-.57-.3-1.5-.52-2.7-.34-1.96-.8-4.65-1.55-7.8-.55-2.35-1.09-5.23-1.62-8.11-.64-3.41-1.27-6.83-1.94-9.36-3.1-11.77-4.36-15.51-7.55-21.58-10.68-20.36-15.4-35.52-15.19-42.18l.04-2c.09-8.86.26-25.76 25.76-27.08 4.47-.23 7.9.51 13.01 2.01 5.12 1.5 12.17 3.45 17.8 3.26 8.63-.3 9.5-.9 10.32-1.65-1.98.8-5.67 1.58-11.74 1.01-6.8-.63-12.52-2.26-16.94-3.52-2.72-.77-4.94-1.4-6.64-1.59-4.46-.48-24.05-1.46-30 12.02-5.95 13.48-1.79 33.62 1.72 42.07 1.28 3.09 3.18 7 5.22 11.2 3.55 7.32 7.55 15.55 9.52 21.96 1.33 4.33 2.64 11.23 3.96 18.32l.26 1.42c1.67 9 3.34 18.02 5.07 22.24Zm48.8-69.16c-3.36-2.44-3.51-8.45-3.45-10.45-.4-.01-.74-.28-1-.7l-.03.53c-.09 1.33-.19 3.03 1.5 7.19 1.06 2.65 2.29 3.4 3.64 4.12.77.4 2.04.73 2.73.75a8.1 8.1 0 0 1-3.4-1.44Z"/><path fill="#B7D6FF" d="M58.85 74.37c-3.72-2.12-7.74-5.25-9.19-13.64-.94-5.44-.67-7.9-.55-8.95.06-.57.08-.73-.16-.74-.37-.01-1.03-.03-1.72.05a32.5 32.5 0 0 0 2.93 15.33 17.06 17.06 0 0 0 8 8.26c1.5.7 4.05 1.1 4.78.95-1.52-.17-2.95-.6-4.09-1.26Z"/><path fill="url(#j)" fill-rule="evenodd" d="M79.72 13.79c.3-.07-.16.57-1.76 1.21-.81.75-1.7 1.34-10.33 1.65-5.62.2-12.67-1.76-17.79-3.26-5.11-1.5-8.54-2.24-13.01-2.01-25.5 1.32-25.67 18.22-25.76 27.08 0 .73-.02 1.4-.04 2-.21 6.66 4.5 21.82 15.2 42.18 3.18 6.07 4.44 9.81 7.54 21.58.67 2.53 1.3 5.95 1.94 9.36.53 2.88 1.07 5.76 1.62 8.1.75 3.16 1.22 5.85 1.55 7.8.21 1.21.37 2.14.52 2.71 1.52 5.95 3.46 9.85 6.44 11.52 4.56 2.55 12.64-4.44 16.11-8.26.79-1.4 1.5-2.77 2.16-4.01l.16-.3c.08-.17.16-.33.25-.48 2.93-5.57 8.69-13.05 14.55-13.53 5.87-.47 8.22 1.27 8.56 1.62.14.14-.02.1-.4 0a11.58 11.58 0 0 0-3.67-.43c1.2 1.72 3.7 6.75 4.05 13.1.43 7.93 2.36 11.83 7.56 10.92 5.19-.91 10.66-5.4 15.46-12.58a100.1 100.1 0 0 0 3.42-8.48c6.9-19.44 11.39-42.97 12.56-67.94 1.16-24.97-4.4-33.82-11.39-41.05-6.99-7.23-20.74-7.69-28.05-5.26a679.44 679.44 0 0 1-20.86 6.32c.25.2.84.53 1.75.84a24 24 0 0 0 5.55-1.35c1.69-.61 3.59-1.05 4.15-.53a8.96 8.96 0 0 0 1.96 1.48Zm11.95 61.47.07-.05.13-.08c2.81-1.91 6.25-1.8 7.92-.08 1.66 1.73 4.95 6.5 6.5 11.89 1.53 5.38 1.48 7.05-.26 7.66-1.06.37-3.26.33-5.83.29a90.3 90.3 0 0 0-5.2.01c-4.48.19-9.67 1.02-17.33 3.77-3.14 1.12-6.47 2.64-9.61 4.07-4.52 2.05-8.66 3.94-11.31 4.24-4.5.52-7.55-.91-7.74-5.59-.19-4.67 3.54-13.22 6.76-17.11 3.23-3.9 7.1-6.77 12.27-6.6 2 .06 3.26.25 4.5.44 1.93.3 3.77.57 8.2.3 6.88-.4 8.19-1.29 10.72-3.01l.2-.15ZM75.42 51.91c.89 1.03 2.5 3.49 1.9 5.07a4.76 4.76 0 0 1-2.15 2.6c.03 2.55-.49 8.58-2.81 12.24-2.02 3.17-5.96 4.2-9.42 3.81-.73.16-3.28-.26-4.79-.95a17.06 17.06 0 0 1-7.99-8.26 32.5 32.5 0 0 1-2.93-15.33 4.4 4.4 0 0 0-1.74.5c-1.06.64-1-1.03 1.83-3.27 1.96-1.55 4.52-.55 7.26 1.89a53.78 53.78 0 0 0 4.26 3.5c4.37 3.11 8.5 3.27 11.95 3.05 3.45-.22 5.54-1.15 4.63-4.85Zm8.21 1.6c-.48.66-1.45 2.3-1.5 3.62a5 5 0 0 0 .6 2.7l-.02.52c-.09 1.33-.19 3.03 1.5 7.19 1.06 2.65 2.29 3.4 3.64 4.12.77.4 2.04.73 2.73.75 2.88.49 6.1-.62 8.4-4.05 2.6-3.92 3.09-13.8 2.97-17.24l.9.01c1.31 0 2.94.02 4.25.49 2.04.73.74-1.64-1.29-2.71l-.18-.1c-.17-.1-.38-.21-.5-.26-2.8-1.02-5.34-1.95-9.69 1.69-.48.4-1.22.98-1.96 1.57-.96.76-1.93 1.53-2.44 1.97-3.02 2.21-3.96 2.85-5.79 2.79-1.75-.06-1.7-1.35-1.64-2.67l.02-.38Zm-8.99-9.3c-.11 3.45-1.4 7.23-8.11 6.08-2.3-.4-4.38-2.39-6.4-4.33l-1.45-1.36c-2.83-2.57-5.44-4.93-7.64-4.83-3.31.16-6.96 2.33-7.33 3.1.77-2.65 5.24-8.77 8.58-9.72 3.36-.97 5.69 1.23 8.37 4.36.64.75 1.23 1.44 1.75 1.97.31.33 1.33 1.65 2.1 2.65l.87 1.12c1.89 2.3 4.64 2.85 9.26.97Zm9.63.32c-1.35 2.63 0 6 2.9 6.1 1.26.04 3.47-1.8 5.84-3.77 2.8-2.33 5.82-4.85 7.86-4.78 2.73.09 4.29.56 5.08 1.95-.2-2.4-2.78-5.7-5.97-6.31-4.1-.8-6.01 1.3-9.1 4.7-2.86 3.14-5.29 3.82-6.61 2.11Z" clip-rule="evenodd"/><path fill="#B7D6FF" d="M70.74 14.83c2.46.35 7.01-.55 8.98-1.04-.21 0-1.3-.86-1.96-1.48-.56-.52-2.46-.08-4.15.53a24 24 0 0 1-5.55 1.35c.7.25 1.6.49 2.68.64ZM66 87.28c.68.36 2.03 1.07 2.04.73 0-.09.04-.4.1-.8-.14.04-.5.12-.77.11-.17 0-.68-.27-1.27-.58-.59-.31-1.27-.67-1.78-.85-1.02-.37-3.42-.45-4.46-.48-.82-.03-1.07-.48-1.1-.7-.15.74.43 1.05 3.15 1.43 3.08.44 3.41.78 4.09 1.14Z"/><path fill="#fff" fill-rule="evenodd" d="M68.47 85.36c-.1.65-.23 1.08-.33 1.84-.14.05-.5.13-.77.12-.17 0-.68-.27-1.27-.58-.59-.31-1.27-.67-1.78-.85-1.02-.37-3.42-.45-4.46-.48-.82-.03-1.07-.48-1.1-.7l.1-.33c.38-.99 3.6-4.55 6.71-5.12 1.93-.35 3.58-.2 5.85.02 1.4.12 3.05.28 5.16.34 5.5.19 9.97.33 14.54-2.52 4.56-2.85 6.26-2.13 6.55-.45.2 1.16-.1 2.78-.57 4.32-.33.54-1.1 1.8-1.71 2.27-3.53 2.75-4.64 2-5.24 2.17-.27.07-.45.45-1.4.62-2.44.42-6.88.92-10.35.99-3.3.07-8.95.04-9.1-.41l-.26-.68c-.2-.55-.55-.7-.57-.57Z" clip-rule="evenodd"/><path fill="#B7D6FF" d="M87.35 86.98c4.15-.53 8.33-2.06 9.08-4.03.23-.62.47-1.3.67-1.98-.33.54-1.1 1.8-1.71 2.27-3.53 2.75-4.64 2-5.24 2.17-.27.07-.45.45-1.4.62-2.44.42-6.88.92-10.35.99-3.3.07-8.95.04-9.1-.41.18.44.35.79.48.8l4.47.14c4.13.14 8.95-.04 13.1-.57Z"/><path fill="#000" d="m80.75 78.43.03.65-.03-.65Zm25.28 16.17.21.61-.21-.61ZM95 94.9l.03.65-.03-.65Zm-17.33 3.77-.22-.62.22.62Zm-20.92 8.31-.08-.65.08.65Zm11.72-21.62-.64-.1.64.1Zm-6.56.78-.1.65.1-.65Zm-3.04-1.76-.61-.23.6.23Zm6.7-5.12.12.64-.12-.64Zm30.86 3.69-.6-.24.6.24Zm-27.42 7.1-.3.57c.26.15.6.08.8-.16l-.5-.41Zm4.89 8.16.25.6-.25-.6Zm-5.94 2.8.15.64-.15-.64Zm-9.96-.66.18-.62-.18.62Zm17.42-48.44.5-.42a.65.65 0 0 0-1.13.58l.63-.16Zm-.25 7.66-.26-.6a.65.65 0 0 0-.4.61h.66Zm-2.81 12.25-.55-.35.55.35Zm-13.51 2.55-.32.57.32-.57Zm-9.19-13.64.64-.1-.64.1ZM45.5 51.6l-.34-.55.34.55Zm1.83-3.27-.4-.51.4.51Zm11.52 5.38-.38.53.38-.53Zm14.94 6.16.15.63.12-.03-.27-.6ZM58.71 57.7l-.43.48.43-.48Zm15.28 6.5.64.07-.64-.07Zm9.64-10.68.65.02a.65.65 0 0 0-1.17-.41l.52.39Zm-1.5 3.61-.65-.02.65.02Zm1.61 3.4.66.01a.65.65 0 0 0-.63-.67l-.03.65Zm3.45 10.44-.39.53.39-.53Zm11.79-2.61-.55-.36.55.36Zm2.97-17.24.02-.65a.65.65 0 0 0-.67.67l.65-.02Zm5.15.5-.22.61.22-.61Zm-11.66-1.38.42.5-.42-.5ZM85.12 60.57l.02-.65a.65.65 0 0 0-.66.54l.64.1Zm3.44 10.45.3-.58-.3.58Zm12.36-19.94.47-.45a.65.65 0 0 0-.55-.2l.08.65Zm-8.43 5.06-.4-.5.4.5Zm-1.14 3.3-.17.63h.03l.14-.63Zm1.96 3.4.64-.06-.64.06ZM74.64 44.22l.65.02a.65.65 0 0 0-.9-.63l.25.6Zm-8.11 6.07.1-.65-.1.65Zm-15.5-10.52-.02-.65.03.65Zm-7.32 3.1-.63-.19a.65.65 0 0 0 1.22.47l-.59-.28Zm8.58-9.72-.18-.63.18.63Zm10.12 6.33.47-.45-.47.45Zm21.86 5.05.52-.4a.65.65 0 0 0-1.1.1l.58.3Zm15.71-6.81-.12.63.12-.63Zm-9.1 4.7.48.44-.48-.44Zm15.07 1.61-.57.32a.65.65 0 0 0 1.22-.37l-.65.05Zm-35.21-29.2-.1.64.1-.64Zm-4.43-1.48-.18-.63a.65.65 0 0 0-.22 1.14l.4-.51Zm20.86-6.32-.2-.62.2.62Zm26.88 114.25-.62-.22.61.22Zm-21.1 23.98.07-.64-.07.64Zm-8.46-14.95.65-.1-.65.1Zm-4.44-11.48-.15-.63a.65.65 0 0 0-.36 1.04l.51-.4Zm-15.53 11.83.57.3-.57-.3Zm-13.28 16.57.22.6-.22-.6Zm-12.85-7.1-.6.25.6-.25ZM29.1 98.16l-.62.2.62-.2ZM14.36 64.99l.6-.25-.6.25ZM66.22 16l.06-.65-.06.65Zm17.34 102.31-.03-.65.03.65Zm4.05 13.1-.65.03.65-.03Zm23.02-1.66.6.27-.6-.27ZM49.28 12.49l.17-.63-.17.63Zm-29.7 63.7-.58.29.58-.29Zm13.74 41.7.64-.12-.64.12Zm53.9.86.17-.63-.17.63Zm12.98-23.86-.01.65v-.65Zm-32.14 7.85-.27-.6.27.6Zm4.47-24.62.1-.64-.1.64ZM49.11 51.78l.65.07-.65-.07Zm5.47-1.57.44-.5-.44.5Zm48.28.92v-.65.65Zm2.27-2.58.23-.6-.23.6Zm-14.09 5.23.39.53a.65.65 0 0 0 .05-.04l-.44-.49ZM58.68 44.6l-.44.48.44-.48Zm1.98-7.1-.5.43.5-.42Zm4.72 5.75.5-.42-.5.42Zm27.63 3.6-.41-.5.41.5Zm-31.06 88.6.57.32-.57-.32Zm-16.1 8.26.31-.56-.32.56Zm-8.52-22.03.64-.15-.64.15Zm-11.1-39.04-.58.3.57-.3Zm10.6-71.26-.04-.65.04.65Zm30.8 5.27-.02-.66.02.66ZM77.96 15l-.24-.6.24.6ZM39.4 132.2l-.63.15.63-.16Zm-5.63-27.97-.63.16.63-.17Zm-.71 12.24-.64.12.64-.12Zm49.67-56.65.55-.35-.55.35Zm1.47 7.72-.6.24.6-.24Zm6.38 4.87.11-.65-.1.65ZM11.07 38.46h-.65.65Zm24.64 75.12-.64.12.64-.12Zm3.17 15.9.65-.11-.65.11Zm19.27-54.8.27-.59-.27.6Zm4.79.95.07-.65-.07.65Zm19.77-15.28-.65-.04.65.04Zm-9.1-47.5-.22-.62.22.61Zm4.15-.54-.45.48.45-.48Zm27.87 36.5-.32.57.32-.57Zm-12.15 3-.4-.51.4.51ZM83.6 53.9l-.65-.03.65.03Zm-23.48-7.94-.45.48.45-.48Zm4.39-3.83.51-.4-.51.4Zm-5.76 42.58-.63-.14.63.14Zm9.38 2.5.64.08-.64-.09Zm.9-1.28-.6.23.6-.23Zm2.38-6.66-.06.65.06-.64Zm6.98 7.75-.02-.65.02.65Zm11.75-1.61-.18-.63.18.63Zm5.24-2.17-.4-.51.4.51Zm-6.63 2.79-.11-.64.1.64Zm3.47-10.36c2.66-1.8 5.72-1.58 7.09-.16l.94-.9c-1.96-2.04-5.78-2.04-8.76-.02l.73 1.08Zm7.09-.16c1.6 1.65 4.82 6.33 6.34 11.6l1.25-.35c-1.58-5.5-4.92-10.37-6.65-12.16l-.94.9Zm6.34 11.6c.77 2.71 1.11 4.38 1.08 5.43-.02.5-.13.8-.26.99-.12.18-.32.33-.67.45l.43 1.23c.53-.18.99-.47 1.32-.94.32-.46.46-1.03.48-1.69.04-1.28-.37-3.14-1.13-5.82l-1.25.36Zm-10.68 7.14c-4.56.19-9.81 1.03-17.53 3.8l.44 1.23c7.6-2.73 12.73-3.54 17.14-3.73l-.05-1.3Zm-38.3 12.08c-2.2.26-3.9.02-5.06-.74-1.12-.73-1.87-2.03-1.96-4.23l-1.3.06c.1 2.48.98 4.23 2.55 5.26 1.53 1 3.6 1.21 5.91.95l-.15-1.3Zm-7.02-4.97c-.09-2.19.75-5.39 2.05-8.57 1.3-3.17 3-6.22 4.56-8.1l-1-.83a34.61 34.61 0 0 0-4.76 8.44c-1.32 3.23-2.25 6.64-2.15 9.12l1.3-.06Zm6.61-16.67c3.17-3.83 6.88-6.52 11.74-6.36l.05-1.3c-5.45-.18-9.5 2.87-12.79 6.83l1 .83ZM67.4 88a.57.57 0 0 1 .4-.52c.11-.04.18-.01.14-.02a2.8 2.8 0 0 1-.4-.14c-.4-.17-.88-.43-1.23-.6l-.6 1.15c.33.17.86.45 1.31.64.22.1.47.2.68.23.1.02.28.04.47-.01.11-.04.25-.1.37-.24.11-.15.16-.3.16-.45L67.4 88Zm-1.1-1.3c-.3-.15-.62-.37-1.24-.58-.6-.2-1.5-.4-3.06-.62l-.19 1.29c1.53.21 2.34.4 2.84.57.49.16.66.3 1.05.5l.6-1.16Zm-6.83-2.1c.06-.13.27-.47.66-.94.38-.46.9-.99 1.5-1.5 1.2-1.06 2.67-2 4.06-2.26l-.23-1.28c-1.73.32-3.42 1.44-4.7 2.55-.64.57-1.2 1.14-1.63 1.65-.4.49-.74.97-.87 1.33l1.21.46Zm17.08-4.32c5.48.18 10.15.34 14.91-2.63l-.69-1.1c-4.38 2.73-8.65 2.6-14.17 2.42l-.05 1.3Zm14.91-2.63c2.27-1.4 3.69-1.85 4.52-1.82.38.01.6.13.74.25.14.14.25.36.3.68l1.3-.22a2.47 2.47 0 0 0-.7-1.4c-.41-.39-.96-.6-1.6-.61-1.24-.04-2.95.58-5.25 2.02l.69 1.1Zm4.36 5.06c-.13.34-.43.72-.94 1.1-.5.4-1.17.76-1.97 1.1a22.5 22.5 0 0 1-5.64 1.43l.16 1.29a23.8 23.8 0 0 0 5.98-1.52c.87-.37 1.64-.78 2.26-1.26a3.98 3.98 0 0 0 1.37-1.67l-1.22-.47Zm-8.55 3.63c-4.11.52-8.9.7-13 .56l-.04 1.3a87 87 0 0 0 13.2-.57l-.16-1.3Zm-13 .56h-.26l-.02-.01h-.29l-.03-.01h-.27l-.02-.01h-.12a1.34 1.34 0 0 1-.04 0h-.14l-.02-.01h-.28l-.02-.01h-.29l-.02-.01h-.22a.8.8 0 0 0-.03 0h-.03l-.02-.01h-.01a.77.77 0 0 0-.03 0h-.24l-.02-.01h-.23a.5.5 0 0 0-.02 0h-.04l-.01-.01h-.15a.4.4 0 0 1-.03 0h-.12l-.01-.01a.37.37 0 0 0-.03 0h-.24a.25.25 0 0 1-.02 0l-.02-.01h-.1a5.49 5.49 0 0 0-.02 0h-.16l-.02-.01h-.02a.15.15 0 0 1-.01 0h-.02a.13.13 0 0 0-.02 0 .13.13 0 0 0-.02 0h-.2v-.01h-.31v-.01h-.23l-.05 1.3h.45v.01h.3l.01.01h.01a.12.12 0 0 1 .02 0h.08a.16.16 0 0 0 .02 0h.01a3.99 3.99 0 0 0 .03 0h.02a.19.19 0 0 1 .02 0 .19.19 0 0 0 .02 0 .19.19 0 0 0 .01 0h.01a5.49 5.49 0 0 0 .02 0h.02l.02.01h.11a7.58 7.58 0 0 1 .02 0h.09a.3.3 0 0 0 .02 0h.05l.01.01h.05a.35.35 0 0 0 .04 0h.03a.36.36 0 0 0 .05 0h.13l.01.01h.13a.5.5 0 0 1 .03 0h.14l.01.01h.28l.02.01h.29l.02.01h.28l.02.01h.29l.02.01h.27l.02.01h.02a1.38 1.38 0 0 1 .04 0h.24l.02.01h.28l.03.01h.28l.02.01h.05l.04-1.3Zm-4.76 3.56a10.54 10.54 0 0 1 1.06-1.07l.01-.01-.04.01a.46.46 0 0 1-.14.02l.05-1.3c-.2 0-.35.06-.44.1-.1.04-.18.1-.26.16-.15.11-.31.26-.46.4-.3.29-.6.63-.79.86l1 .83Zm.9-1.05c.36.01 8.64-.05 13.47-.23l-.05-1.3a403.98 403.98 0 0 1-12.93.23h-.32a17.83 17.83 0 0 1-.13 0l-.05 1.3Zm13.47-.23c2.44-.08 4.72-.35 6.58-.71 1.82-.36 3.33-.83 4.15-1.39L93.88 86c-.58.4-1.86.83-3.67 1.2-1.78.34-4 .6-6.38.68l.05 1.3Zm10.73-2.1a8.3 8.3 0 0 1 1.85-1.06c.23-.07.36-.06.42-.04.04.02.13.06.24.29l1.18-.56c-.22-.45-.54-.8-1-.96a1.91 1.91 0 0 0-1.23.03c-.72.22-1.52.77-2.19 1.22l.73 1.08Zm2.5-.81c.35.71.73 1.43 1.04 2.17.31.74.5 1.4.48 1.91l1.3.05a6.1 6.1 0 0 0-.58-2.46c-.32-.78-.75-1.6-1.05-2.23l-1.18.56Zm1.52 4.08c0 .16-.1.43-.33.78-.23.34-.55.7-.94 1.04-.8.68-1.69 1.1-2.3 1.08l-.04 1.3c1.1.04 2.31-.64 3.2-1.4.45-.39.86-.84 1.16-1.3.3-.43.54-.94.55-1.45l-1.3-.05Zm-3.57 2.9c-.37-.01-2.82-.09-6.34.47l.2 1.29c3.41-.55 5.78-.47 6.1-.46l.04-1.3Zm-6.34.47c-3.46.56-9.76 1.7-15.07 3.89l.5 1.2c5.16-2.13 11.32-3.25 14.78-3.8l-.2-1.29Zm-15.07 3.89a57.93 57.93 0 0 0-4.47 2.04l-1.06.56a7.6 7.6 0 0 1-.28.15l-.04.02.3 1.27c.13-.03.24-.08.32-.12l.32-.17 1.03-.55c.91-.47 2.3-1.14 4.38-2l-.5-1.2Zm-5.85 2.77c-1.12.27-2.78.34-4.56.21a24.3 24.3 0 0 1-5.06-.86l-.37 1.25c1.55.46 3.49.78 5.33.91 1.84.13 3.66.07 4.97-.24l-.3-1.27Zm-9.62-.65c-1.87-.56-2.56-1.04-2.87-1.56-.16-.27-.25-.6-.29-1.08-.03-.49-.02-1.07 0-1.84l-1.3-.04c-.02.74-.04 1.4 0 1.98.05.59.17 1.14.46 1.64.59 1 1.75 1.59 3.63 2.15l.37-1.25Zm-3.15-4.48c.05-1.4.42-2.9.92-4.17a7.75 7.75 0 0 1 1.51-2.61l-.87-.97a8.86 8.86 0 0 0-1.86 3.1 14.3 14.3 0 0 0-1 4.61l1.3.04Zm2.43-6.78c.35-.32.92-.46 1.67-.43.74.02 1.54.2 2.2.39l.35-1.26c-.7-.2-1.61-.4-2.5-.43-.88-.03-1.87.1-2.6.76l.88.97Zm3.87-.04c.77.2 1.53.23 2.13.25l.77.04c.22.03.34.07.4.1l.6-1.15c-.27-.15-.57-.2-.85-.24-.28-.03-.59-.04-.88-.05a7.68 7.68 0 0 1-1.82-.2l-.35 1.25Zm3.3.4c.37.19 1.25.56 2.08.91.87.37 1.68.72 2 .88l.6-1.15c-.37-.2-1.25-.57-2.09-.92-.86-.37-1.67-.72-1.98-.88l-.6 1.15Zm5.13-.78 4.47.15.04-1.3-4.47-.15-.04 1.3Zm5.17-35.71c.41.48 1 1.3 1.4 2.17.44.92.58 1.7.38 2.23l1.22.47c.4-1.06.04-2.28-.41-3.25-.47-1-1.13-1.92-1.6-2.47l-1 .85Zm1.78 4.4a4.15 4.15 0 0 1-1.8 2.24l.52 1.19a5.39 5.39 0 0 0 2.5-2.96l-1.22-.47Zm-2.2 2.84c.02 1.24-.1 3.34-.5 5.59a18.25 18.25 0 0 1-2.2 6.3l1.1.7a19.45 19.45 0 0 0 2.38-6.77c.42-2.33.55-4.52.53-5.84l-1.3.02ZM59.18 73.81a17.27 17.27 0 0 1-5.25-4.31c-1.58-2-2.91-4.78-3.62-8.88l-1.28.23c.74 4.28 2.14 7.26 3.87 9.45a18.55 18.55 0 0 0 5.64 4.64l.64-1.13ZM45.15 51.04l-.08.04c.05 0 .2 0 .33.13a.41.41 0 0 1 .1.2v.03l.02-.05.04-.12c.17-.46.79-1.35 2.16-2.44l-.8-1.02c-1.46 1.15-2.29 2.22-2.58 3-.08.19-.13.4-.13.6 0 .21.04.49.25.7a.9.9 0 0 0 .76.26c.22-.02.43-.11.6-.22l-.67-1.11Zm13.31 3.2c4.55 3.24 8.85 3.4 12.37 3.17l-.08-1.3c-3.39.22-7.33.06-11.53-2.94l-.76 1.06Zm12.37 3.17c1.73-.1 3.31-.4 4.33-1.28 1.11-.95 1.38-2.4.9-4.37l-1.27.3c.43 1.74.1 2.6-.47 3.09-.67.57-1.85.85-3.57.96l.08 1.3Zm2.8 1.82c-1.62.37-4.32.72-7.1.54-2.78-.18-5.54-.9-7.38-2.56l-.87.97c2.16 1.95 5.27 2.7 8.17 2.9a27.3 27.3 0 0 0 7.48-.59l-.3-1.26ZM59.16 57.2a95.49 95.49 0 0 0-5.57-4.71 11.25 11.25 0 0 0-2.7-1.68l-.44 1.22c.4.15 1.1.54 2.35 1.5a96 96 0 0 1 5.49 4.64l.87-.97Zm-8.27-6.4a.82.82 0 0 0-.83.17c-.17.15-.26.35-.31.49-.1.3-.16.7-.2 1.11a44.14 44.14 0 0 0 1.13 10.71l1.26-.34a42.97 42.97 0 0 1-1.08-10.27c.03-.4.07-.65.12-.77.02-.07.02-.02-.05.04a.49.49 0 0 1-.48.09l.44-1.22Zm-.2 12.48a20.69 20.69 0 0 0 3.8 7.25c2.11 2.53 5.14 4.69 9.2 4.64l-.02-1.3c-3.53.04-6.22-1.82-8.17-4.18a19.4 19.4 0 0 1-3.56-6.75l-1.25.34Zm13 11.9c3.96-.05 6.6-1.55 8.31-3.7 1.68-2.13 2.39-4.83 2.64-7.22l-1.3-.14c-.23 2.27-.9 4.7-2.36 6.55-1.44 1.82-3.7 3.16-7.31 3.2l.01 1.3Zm10.95-10.92c.2-1.87.22-3.04.14-3.75a2.4 2.4 0 0 0-.23-.86.9.9 0 0 0-.35-.37.75.75 0 0 0-.67-.02l.53 1.19a.55.55 0 0 1-.49-.02c-.12-.07-.16-.15-.16-.16 0 0 .04.1.07.39.07.56.07 1.62-.13 3.46l1.3.14Zm8.48-11.14c-.27.36-.65.96-.98 1.66a6.2 6.2 0 0 0-.65 2.32l1.3.05c.02-.54.23-1.19.53-1.81.29-.62.63-1.15.84-1.45l-1.04-.77Zm-.02 7.37a22.7 22.7 0 0 0 .45 5.22c.46 2.1 1.39 4.41 3.26 5.78l.77-1.06c-1.49-1.08-2.32-3-2.75-5a20.94 20.94 0 0 1-.42-4.9l-1.3-.04Zm16.43 8.22c.7-1.07 1.25-2.5 1.67-4.05.42-1.57.72-3.31.94-5.02.44-3.43.53-6.8.47-8.55l-1.3.04c.06 1.69-.03 4.98-.46 8.34a37.33 37.33 0 0 1-.91 4.85c-.4 1.5-.9 2.77-1.5 3.67l1.09.72Zm7.36-16.49c.29.1.56.17.82.18.25 0 .57-.05.8-.3a1 1 0 0 0 .27-.8c-.02-.24-.1-.47-.2-.66a6.05 6.05 0 0 0-2.46-2.32l-.6 1.16a4.8 4.8 0 0 1 1.89 1.75c.06.12.07.18.07.2 0 0 0-.12.1-.24.12-.11.22-.1.16-.1s-.19-.01-.41-.1l-.44 1.23Zm-22.4 8.23a16.1 16.1 0 0 0 .14 5.68c.46 2.12 1.5 4.33 3.64 5.45l.6-1.15c-1.64-.87-2.54-2.62-2.96-4.58a14.8 14.8 0 0 1-.14-5.19l-1.28-.21Zm3.78 11.13a7.07 7.07 0 0 0 7.08 0 10.2 10.2 0 0 0 4.34-5.7l-1.24-.4a8.9 8.9 0 0 1-3.75 4.97 5.78 5.78 0 0 1-5.83-.02l-.6 1.15Zm11.42-5.7c.79-2.37 1.34-6 1.66-9.04.16-1.52.26-2.92.3-3.96a18.2 18.2 0 0 0-.02-1.73l-.05-.2a.77.77 0 0 0-.18-.33l-.94.9a.58.58 0 0 1-.13-.2v.02l.03.3c0 .28 0 .68-.02 1.19-.03 1-.13 2.37-.29 3.88-.31 3.02-.85 6.53-1.6 8.77l1.24.4Zm1.16-15.45c-1.18.15-2.5.75-3.93 1.64-1.44.89-3.05 2.1-4.83 3.56l.82 1a46.83 46.83 0 0 1 4.7-3.46 9.2 9.2 0 0 1 3.4-1.45l-.16-1.3Zm-8.76 5.2c-1.62 1.32-2.91 2.41-4.06 3.18-1.15.76-2.05 1.12-2.88 1.1l-.04 1.3c1.24.04 2.42-.5 3.64-1.32 1.22-.8 2.58-1.96 4.16-3.25l-.82-1.01Zm-28.47 6.84c.46-.85 1.31-1.4 2.1-1.39.72 0 1.62.46 2.19 2.14l1.23-.42c-.68-2.03-1.97-3.02-3.4-3.02-1.37 0-2.62.88-3.27 2.08l1.15.61Zm4.29.75a5 5 0 0 1-.52 4.33c-.35.53-.78.9-1.18 1.08-.38.18-.73.18-1.03.02l-.6 1.15c.72.38 1.5.33 2.17.02.67-.3 1.27-.86 1.73-1.55a6.3 6.3 0 0 0 .66-5.47l-1.23.42Zm-2.73 5.43c-.77-.4-1.44-1.45-1.76-2.74a5.1 5.1 0 0 1 .2-3.44l-1.15-.61a6.34 6.34 0 0 0-.31 4.36c.36 1.46 1.17 2.93 2.42 3.58l.6-1.15Zm26.36-9.85a3.53 3.53 0 0 0-2.82.42c-.94.6-1.65 1.68-1.9 3.32l1.3.19c.2-1.35.74-2.06 1.3-2.41a2.19 2.19 0 0 1 1.77-.26l.35-1.26Zm-4.71 3.74c-.48 3.22 1.31 5.44 3.22 5.5l.04-1.3c-.85-.03-2.38-1.26-1.98-4.01l-1.28-.2Zm3.22 5.5c1.82.06 4.19-1.93 3.91-5.27l-1.3.1c.22 2.69-1.64 3.9-2.57 3.87l-.04 1.3Zm3.91-5.27c-.2-2.6-1.53-3.77-2.45-3.98l-.3 1.27c.22.05 1.28.6 1.46 2.82l1.3-.1ZM74 44.2c-.05 1.67-.4 3.27-1.4 4.33-.97 1.01-2.72 1.67-5.95 1.11l-.22 1.29c3.47.6 5.73-.06 7.1-1.5 1.36-1.42 1.72-3.43 1.77-5.2L74 44.2Zm-22.98-5.08a13.77 13.77 0 0 0-6.84 2.43 5.8 5.8 0 0 0-.62.5c-.16.14-.33.33-.43.53l1.18.57a4.5 4.5 0 0 1 .62-.53c.41-.3.97-.62 1.63-.94a12.35 12.35 0 0 1 4.52-1.26l-.06-1.3Zm-6.68 3.93c.36-1.2 1.6-3.3 3.21-5.26a19.8 19.8 0 0 1 2.53-2.6 7.1 7.1 0 0 1 2.4-1.42l-.36-1.25a8.2 8.2 0 0 0-2.88 1.68 21.1 21.1 0 0 0-2.7 2.76c-1.64 2-3.02 4.28-3.45 5.72l1.25.37Zm39.36 1.19a5.31 5.31 0 0 0-.15 4.56 4.05 4.05 0 0 0 3.6 2.48l.05-1.3a2.75 2.75 0 0 1-2.47-1.72 4 4 0 0 1 .13-3.43l-1.16-.6Zm16.42-7.16a7.07 7.07 0 0 0-5.4.86c-1.47.9-2.79 2.36-4.31 4.04l.96.88c1.57-1.73 2.75-3.02 4.03-3.82a5.77 5.77 0 0 1 4.47-.69l.25-1.27Zm-9.71 4.9c-1.4 1.54-2.63 2.4-3.6 2.7-.47.14-.86.15-1.17.06a1.6 1.6 0 0 1-.84-.6l-1.04.8c.41.52.92.89 1.53 1.05.6.17 1.25.13 1.91-.07 1.3-.4 2.71-1.46 4.17-3.06l-.96-.88Zm10.45.75c2.73.09 3.93.57 4.53 1.62l1.14-.64c-.98-1.73-2.9-2.2-5.63-2.28l-.04 1.3Zm5.75 1.25a7.72 7.72 0 0 0-2.03-4.2 8.26 8.26 0 0 0-4.46-2.7l-.25 1.27a6.97 6.97 0 0 1 3.74 2.29 6.46 6.46 0 0 1 1.7 3.45l1.3-.11ZM79.56 13.16a45 45 0 0 1-4.24.82 17.9 17.9 0 0 1-4.5.2l-.18 1.3c1.34.18 3.17.03 4.87-.21a48.8 48.8 0 0 0 4.37-.85l-.32-1.26Zm-13.07.81a693.6 693.6 0 0 0 20.88-6.32l-.4-1.24a678.98 678.98 0 0 1-20.84 6.31l.36 1.25Zm20.88-6.32c3.55-1.18 8.71-1.67 13.86-.97 5.14.7 10.17 2.59 13.52 6.06l.94-.9c-3.63-3.76-8.98-5.72-14.29-6.45-5.3-.72-10.67-.23-14.44 1.02l.41 1.24Zm27.38 5.1c3.46 3.57 6.53 7.5 8.6 13.62 2.09 6.14 3.19 14.5 2.6 26.94l1.3.06c.6-12.53-.5-21.07-2.66-27.41-2.16-6.36-5.37-10.47-8.9-14.12l-.94.9Zm11.2 40.56c-1.16 24.92-5.64 48.38-12.52 67.75l1.23.44c6.93-19.51 11.43-43.1 12.6-68.13l-1.3-.06Zm-32.93 91.3a7 7 0 0 1-3.86-1.47 7.44 7.44 0 0 1-2.11-3.11c-1.04-2.63-1.34-6.06-1.91-9.81l-1.3.2c.56 3.6.9 7.28 2 10.09a8.73 8.73 0 0 0 2.5 3.64 8.28 8.28 0 0 0 4.54 1.76l.14-1.3Zm-7.88-14.4c-.93-6-3.4-10.33-4.58-11.79l-1.02.82c1.03 1.28 3.42 5.39 4.3 11.17l1.3-.2Zm2.95-11.92c-.5-.52-3.07-2.3-9.07-1.8l.1 1.3c5.74-.47 7.88 1.25 8.04 1.41l.93-.9Zm-9.07-1.8c-3.17.25-6.22 2.38-8.8 5.04-2.58 2.68-4.79 6-6.28 8.82l1.15.61a38.7 38.7 0 0 1 6.07-8.52c2.5-2.6 5.27-4.44 7.97-4.66l-.1-1.3Zm-28 30.12c-2.9 1.05-5.1 1.16-6.93.2-1.87-.95-3.52-3.08-5.1-6.92l-1.2.5c1.6 3.92 3.42 6.41 5.7 7.59 2.3 1.19 4.93.95 7.97-.14l-.44-1.23ZM14.96 64.74c-1.73-4.16-3.63-11.24-4.36-18.96-.73-7.73-.27-16 2.64-22.6l-1.2-.52C9.02 29.54 8.58 38.07 9.32 45.9c.74 7.83 2.67 15.05 4.45 19.34l1.2-.5Zm-1.72-41.56c2.85-6.46 9-9.5 15.1-10.87a47.2 47.2 0 0 1 14.23-.76l.14-1.3a48.36 48.36 0 0 0-14.65.8c-6.29 1.4-12.92 4.6-16.01 11.6l1.19.53Zm66.96 96.28a20.1 20.1 0 0 1 3.4-.48l-.07-1.3c-1.45.07-2.95.35-3.63.52l.3 1.27Zm3.4-.48c.32-.02.63-.03.92-.02l.04-1.3c-.33-.01-.68 0-1.03.01l.07 1.3Zm-.57-.28c1.14 1.63 3.6 6.54 3.93 12.75l1.3-.07c-.35-6.48-2.9-11.62-4.16-13.43l-1.07.75Zm3.93 12.75c.21 3.98.8 7.09 2.1 9.1a5.36 5.36 0 0 0 2.56 2.19 6.8 6.8 0 0 0 3.66.24l-.23-1.29a5.44 5.44 0 0 1-2.96-.17 4.06 4.06 0 0 1-1.94-1.68c-1.09-1.7-1.68-4.5-1.9-8.46l-1.3.07Zm26.47-10.38a99.5 99.5 0 0 1-3.39 8.42l1.18.54a97.74 97.74 0 0 0 3.44-8.53l-1.23-.44Zm-3.39 8.42c-2.88 6.22-5.74 10.16-8.58 12.46a11.03 11.03 0 0 1-8.44 2.67l-.14 1.3c3.18.33 6.33-.46 9.4-2.96 3.06-2.48 6.03-6.61 8.94-12.93l-1.18-.54Zm-14.76 13.49c5.45-.96 11.06-5.63 15.9-12.86l-1.09-.72c-4.76 7.12-10.1 11.43-15.04 12.3l.23 1.28Zm-29-127.62c-6.74-.63-12.4-2.24-16.83-3.5l-.35 1.26c4.42 1.26 10.19 2.9 17.06 3.54l.12-1.3Zm-16.83-3.5c-2.69-.76-4.98-1.42-6.74-1.6l-.14 1.29c1.63.18 3.8.79 6.53 1.57l.35-1.26Zm-35.7 53.38c1.3 3.1 3.2 7.03 5.25 11.24l1.17-.57a233 233 0 0 1-5.21-11.17l-1.2.5ZM19 76.48c3.55 7.33 7.52 15.5 9.48 21.86l1.24-.38c-1.99-6.47-6-14.75-9.55-22.05l-1.17.57ZM32.68 118c.83 4.5 1.67 9.02 2.52 12.94.84 3.9 1.7 7.27 2.59 9.44l1.2-.5c-.84-2.04-1.68-5.3-2.52-9.22-.84-3.9-1.67-8.4-2.5-12.9l-1.29.24Zm54.48 1.2-.04-.05s-.11-.15-.1-.38a.64.64 0 0 1 .45-.56c.11-.03.2-.02.2-.02l-.05-.01-.23-.06-.34 1.26a10.04 10.04 0 0 0 .52.11c.04 0 .15.01.28-.03a.67.67 0 0 0 .48-.59c.01-.23-.1-.4-.12-.44a.98.98 0 0 0-.12-.14l-.93.91Zm.23-1.08c-.54-.15-1.55-.42-2.83-.46l-.04 1.3c1.12.04 2.01.28 2.53.42l.34-1.26Zm18.42-24.14a8.1 8.1 0 0 1-2.15.27c-.98.03-2.16 0-3.45-.01l-.02 1.3c1.28.02 2.49.04 3.51.01 1-.03 1.9-.12 2.54-.34l-.43-1.23Zm-5.6.26a91.4 91.4 0 0 0-5.23.01l.05 1.3a89 89 0 0 1 5.16-.01l.02-1.3Zm-22.76 3.81a131.21 131.21 0 0 0-9.66 4.1l.54 1.18c3.15-1.43 6.45-2.93 9.56-4.05l-.44-1.23Zm-9.66 4.1c-2.27 1.02-4.42 2-6.33 2.76a20.68 20.68 0 0 1-4.79 1.42l.15 1.3c1.42-.17 3.18-.74 5.12-1.51 1.95-.77 4.13-1.77 6.39-2.8l-.54-1.18ZM68 78.32c1.96.06 3.2.25 4.43.43l.19-1.28c-1.24-.2-2.54-.39-4.57-.45l-.05 1.3Zm4.43.43c1.97.3 3.85.58 8.34.32l-.07-1.3c-4.38.26-6.17-.02-8.08-.3l-.2 1.28Zm8.34.32c3.46-.2 5.57-.53 7.15-1.05 1.6-.52 2.63-1.22 3.9-2.08l-.74-1.08a12.97 12.97 0 0 1-3.56 1.92c-1.42.46-3.4.79-6.82.99l.07 1.3ZM50.3 60.62c-.92-5.37-.65-7.76-.54-8.77l-1.3-.14c-.12 1.11-.39 3.63.56 9.13l1.28-.22Zm-.54-8.77.03-.38c.01-.1.02-.24 0-.37a.83.83 0 0 0-.3-.53.87.87 0 0 0-.52-.18l-.04 1.3-.08-.01a.5.5 0 0 1-.18-.1.48.48 0 0 1-.17-.28v.08l-.04.33 1.3.14Zm-2.04-3.02c.79-.62 1.69-.75 2.75-.44 1.1.32 2.34 1.11 3.68 2.3l.87-.97a11.57 11.57 0 0 0-4.18-2.58 4.15 4.15 0 0 0-3.93.67l.81 1.02Zm6.43 1.86c1.22 1.08 2.63 2.34 4.31 3.54l.76-1.06a50.2 50.2 0 0 1-4.2-3.45l-.87.97Zm47.78 1.08.92.01.01-1.3-.89-.01-.04 1.3Zm.92.01c1.34.01 2.85.03 4.03.45l.44-1.22c-1.43-.52-3.18-.52-4.46-.53v1.3Zm2.5-3.84c-1.37-.5-2.83-1.05-4.52-.94-1.71.1-3.56.86-5.8 2.74l.83 1c2.1-1.76 3.7-2.36 5.05-2.44 1.37-.09 2.59.35 4 .87l.45-1.23Zm-14.7 5.32a27.12 27.12 0 0 1-3.25 2.19c-.74.37-1.32.5-2.13.47l-.04 1.3a5.27 5.27 0 0 0 2.76-.61c.9-.46 1.94-1.2 3.44-2.3l-.77-1.05Zm-31.53-9.14A44.71 44.71 0 0 0 55 40.65c-1.3-.91-2.66-1.6-4-1.53l.07 1.3c.87-.04 1.92.42 3.18 1.3a44.5 44.5 0 0 1 4 3.36l.87-.96Zm-6.65-10.35a4.61 4.61 0 0 1 3.92.58c1.24.76 2.43 2.01 3.77 3.58l.99-.85c-1.34-1.56-2.65-2.96-4.08-3.84a5.91 5.91 0 0 0-4.96-.72l.36 1.25Zm7.7 4.16a41.1 41.1 0 0 0 1.77 2l.94-.9c-.5-.52-1.08-1.2-1.73-1.95l-.99.85Zm4.7 5.73a6.03 6.03 0 0 0 4.04 2.29c1.65.2 3.62-.17 5.98-1.13l-.5-1.2c-2.25.91-3.97 1.2-5.32 1.03a4.73 4.73 0 0 1-3.19-1.82l-1 .83Zm22.28 7.62c.46.02.95-.14 1.4-.35.48-.22.98-.53 1.5-.9 1.03-.71 2.2-1.69 3.38-2.67l-.83-1a52.7 52.7 0 0 1-3.3 2.6 8.7 8.7 0 0 1-1.3.79c-.38.18-.64.24-.81.23l-.04 1.3Zm6.28-3.92a53.56 53.56 0 0 1 4.16-3.25c.66-.44 1.28-.8 1.84-1.04a3.45 3.45 0 0 1 1.42-.34l.04-1.3a4.72 4.72 0 0 0-1.97.44c-.67.29-1.36.7-2.06 1.16-1.4.94-2.88 2.17-4.26 3.33l.83 1ZM51.46 147.84c2.35-.85 4.43-2.67 6.25-4.84a47.94 47.94 0 0 0 4.8-7.23l-1.13-.64a46.7 46.7 0 0 1-4.67 7.03c-1.75 2.1-3.65 3.72-5.7 4.45l.45 1.23Zm11.06-12.07c.79-1.41 1.51-2.79 2.16-4.03l-1.15-.6c-.65 1.24-1.37 2.6-2.15 4l1.14.63Zm-1.05-.76a39.55 39.55 0 0 1-7.51 6.4 15.27 15.27 0 0 1-4.32 2c-1.36.33-2.53.27-3.48-.26l-.63 1.13c1.33.75 2.87.77 4.42.39a16.55 16.55 0 0 0 4.7-2.15 40.85 40.85 0 0 0 7.78-6.63l-.96-.88ZM26.8 82.33c-5.33-10.15-9.17-19-11.65-26.13-2.48-7.15-3.57-12.52-3.46-15.72l-1.3-.04c-.12 3.45 1.04 9 3.53 16.19 2.5 7.2 6.37 16.1 11.73 26.31l1.15-.6Zm39.36-65.67c6.14.58 9.95-.22 12.04-1.06l-.48-1.2c-1.86.74-5.45 1.52-11.44.96l-.12 1.3ZM78.2 15.6a6.8 6.8 0 0 0 1.77-.97l.24-.23a.86.86 0 0 0 .19-.29c.03-.07.2-.5-.18-.81a.7.7 0 0 0-.41-.17c-.1 0-.19.01-.24.03l.3 1.26a.5.5 0 0 1-.14.01.6.6 0 0 1-.36-.14c-.34-.3-.17-.68-.17-.69.03-.06.06-.09.03-.06a5.58 5.58 0 0 1-1.52.86l.49 1.2Zm-10.54 1.7c4.31-.15 6.74-.38 8.2-.67a6.55 6.55 0 0 0 1.65-.52c.41-.2.67-.43.89-.63l-.88-.96c-.19.17-.34.3-.6.43a5.3 5.3 0 0 1-1.32.4c-1.34.27-3.67.5-7.99.64l.05 1.3Zm-3.72 113.05-.25.48 1.15.6.25-.47-1.15-.6Zm-17.78 12.8c-2.72-1.53-4.6-5.18-6.13-11.12l-1.26.32c1.52 5.95 3.5 10.11 6.76 11.93l.63-1.13Zm-11.76-39.1c-3.1-11.78-4.38-15.58-7.6-21.72l-1.15.61c3.15 6 4.39 9.7 7.5 21.45l1.25-.33Zm2.46-92.02c4.37-.23 7.7.5 12.8 1.99l.37-1.25c-5.14-1.51-8.65-2.28-13.24-2.04l.07 1.3Zm12.8 1.99c5.1 1.5 12.25 3.48 18 3.28L67.6 16c-5.5.19-12.45-1.72-17.58-3.23l-.37 1.25ZM32.42 116.59l.26 1.41 1.28-.23-.26-1.42-1.28.24Zm-3.94-18.25c1.32 4.29 2.62 11.15 3.94 18.25l1.28-.24c-1.31-7.07-2.63-14.02-3.98-18.4l-1.24.4Zm53-41.23c-.03 1.1.2 2.26.7 3.06l1.1-.7a4.38 4.38 0 0 1-.5-2.31l-1.3-.05Zm.7 3.06c.32.51.83.98 1.54 1l.05-1.3c-.1 0-.28-.07-.49-.4l-1.1.7Zm1.42 7.61a8.73 8.73 0 0 0 1.86 3 8.1 8.1 0 0 0 2.09 1.46l.6-1.16a6.83 6.83 0 0 1-1.77-1.21 7.45 7.45 0 0 1-1.57-2.58l-1.21.5Zm3.2 3.72a8.74 8.74 0 0 0 3.67 1.55l.22-1.29a7.44 7.44 0 0 1-3.12-1.32l-.77 1.06Zm3.67 1.55c3.15.53 6.62-.7 9.05-4.33L98.43 68c-2.15 3.22-5.12 4.21-7.74 3.76l-.22 1.29Zm-2.92-.81a7.73 7.73 0 0 0 3.01.82l.04-1.3a6.46 6.46 0 0 1-2.44-.67l-.61 1.15ZM36.79 10.73c-12.9.67-19.55 5.3-22.93 11.03-3.35 5.67-3.4 12.29-3.44 16.7l1.3.01c.04-4.45.12-10.72 3.26-16.05 3.1-5.26 9.29-9.74 21.88-10.4l-.07-1.3ZM10.42 38.46l-.04 1.98 1.3.04c.03-.61.03-1.29.04-2l-1.3-.02Zm22.72 65.93c.66 2.5 1.29 5.89 1.93 9.3l1.28-.23c-.64-3.4-1.28-6.85-1.95-9.4l-1.26.33Zm1.93 9.3c.53 2.89 1.07 5.78 1.63 8.14l1.27-.3c-.55-2.32-1.09-5.18-1.62-8.07l-1.28.24Zm1.63 8.14c.74 3.14 1.2 5.81 1.54 7.76l1.29-.22c-.34-1.95-.81-4.66-1.56-7.84l-1.27.3Zm1.54 7.76c.21 1.2.38 2.16.53 2.76l1.26-.32a43 43 0 0 1-.5-2.66l-1.29.22Zm10.73-79.2c-.37-.01-1.07-.04-1.82.05l.15 1.3c.64-.08 1.26-.06 1.63-.05l.04-1.3Zm-1.82.05c-.64.07-1.39.23-2 .6l.67 1.11c.38-.22.9-.35 1.48-.42l-.15-1.3Zm-.58.62a33.3 33.3 0 0 0 3 15.64l1.18-.56a31.84 31.84 0 0 1-2.87-15.03l-1.3-.05Zm3 15.64a17.7 17.7 0 0 0 8.31 8.58l.54-1.19a16.4 16.4 0 0 1-7.67-7.95l-1.18.56Zm22.24 4.77c-1.83 2.88-5.47 3.88-8.8 3.51l-.14 1.3c3.6.4 7.84-.65 10.04-4.11l-1.1-.7ZM63 74.98a10.1 10.1 0 0 1-3.84-1.17l-.64 1.13a11.4 11.4 0 0 0 4.34 1.34l.14-1.3Zm-5.13.3a13.05 13.05 0 0 0 4.17 1.02c.37.02.75.03 1.03-.03l-.28-1.28c-.08.02-.3.03-.65 0a11.8 11.8 0 0 1-3.73-.9l-.54 1.19Zm26.93-7.99a20.93 20.93 0 0 1-1.37-4.5 9.95 9.95 0 0 1-.08-2.4l-1.3-.08c-.05.68-.1 1.5.09 2.67.18 1.18.6 2.69 1.45 4.8l1.2-.49Zm-1.45-6.9.02-.55-1.3-.04-.02.51 1.3.08ZM70.83 14.2a13.51 13.51 0 0 1-2.56-.61l-.43 1.23c.75.26 1.68.5 2.8.66l.19-1.29Zm-2.56-.61a5.6 5.6 0 0 1-1.56-.75l-.8 1.03c.33.26.99.62 1.93.95l.43-1.23Zm-.12 1.26c2.95-.43 4.3-.89 5.68-1.39l-.44-1.22a23.4 23.4 0 0 1-5.42 1.32l.18 1.29Zm5.68-1.39c.82-.3 1.68-.54 2.38-.65.35-.06.64-.08.85-.06.23.02.28.07.25.05l.89-.96a1.7 1.7 0 0 0-1.04-.39c-.35-.03-.75 0-1.16.07-.8.13-1.75.4-2.61.72l.44 1.22Zm3.48-.66a17.72 17.72 0 0 0 1.76 1.4l.24.14c.06.03.2.1.39.11l.04-1.3c.13 0 .2.05.15.02a16.43 16.43 0 0 1-1.69-1.33l-.89.96Zm28.8 35.54-.16-.09-.64 1.14.2.1.6-1.15Zm-.16-.09c-.15-.08-.42-.23-.6-.3l-.44 1.23h.01a1.5 1.5 0 0 1 .14.07l.25.14.64-1.14Zm-10.93 1.5c-.47.4-1.2.97-1.94 1.56l.8 1.02 1.98-1.58-.84-1Zm-1.94 1.56c-.95.75-1.95 1.53-2.47 2l.87.97c.48-.43 1.44-1.19 2.4-1.95l-.8-1.02Zm-7.8 4.62a1.37 1.37 0 0 1-.69-.16.57.57 0 0 1-.23-.3 4.11 4.11 0 0 1-.1-1.53l-1.3-.06c-.02.61-.07 1.43.19 2.08.14.36.38.68.75.92.37.22.81.33 1.33.35l.04-1.3Zm-1.01-2 .01-.38-1.3-.05-.02.38 1.3.06Zm-17.63-4.28c-1.01-.17-2-.7-3.03-1.46a33.51 33.51 0 0 1-3.03-2.69l-.9.95c1 .96 2.06 1.97 3.15 2.79a8.55 8.55 0 0 0 3.59 1.7l.22-1.29Zm-6.06-4.15c-.48-.46-.97-.93-1.46-1.37l-.88.96c.48.43.95.89 1.44 1.36l.9-.95Zm1.36-5.56c.28.3 1.27 1.57 2.06 2.6l1.03-.8c-.75-.97-1.8-2.34-2.15-2.7l-.94.9Zm2.06 2.6.88 1.13 1-.83a71 71 0 0 1-.85-1.1l-1.03.8ZM62 85.5a10.4 10.4 0 0 1-2.46-.53c-.17-.08-.18-.12-.16-.09.02.05 0 .06.02-.04l-1.27-.27c-.06.28-.07.6.1.93.17.31.46.51.75.65.57.27 1.5.45 2.83.64l.19-1.3Zm-2.6-.66.07-.23-1.21-.46c-.05.13-.1.28-.13.42l1.27.27Zm-1.28-.07c.06.6.62 1.26 1.72 1.3l.05-1.31c-.3-.01-.42-.1-.45-.12-.05-.04-.03-.06-.03 0l-1.3.13Zm1.72 1.3c.52 0 1.36.04 2.2.1a9.5 9.5 0 0 1 2.06.33l.44-1.22c-.6-.22-1.54-.33-2.39-.4-.88-.07-1.75-.1-2.26-.12l-.05 1.3Zm7.99-.8-.16.84c-.06.29-.13.6-.18 1l1.3.18c.04-.36.1-.64.15-.92l.18-.91-1.3-.2Zm-.34 1.85c-.05.38-.1.74-.1.87l1.3.04v-.06a9.33 9.33 0 0 1 .1-.68l-1.3-.17Zm-.14.86c.39 0 .82-.1.98-.16l-.4-1.24a2.32 2.32 0 0 1-.53.1l-.05 1.3Zm1.77-2.52a.6.6 0 0 1-.65.5.45.45 0 0 1-.19-.06l.05.06c.03.04.07.1.1.2l1.22-.45a1.89 1.89 0 0 0-.56-.83.96.96 0 0 0-.48-.21.7.7 0 0 0-.78.6l1.29.19Zm7.48-6.49a76.12 76.12 0 0 1-5.12-.34l-.12 1.3c1.41.12 3.07.28 5.2.35l.04-1.3Zm-5.12-.34c-2.26-.21-4-.38-6.02 0l.23 1.27c1.82-.33 3.38-.19 5.67.02l.12-1.3ZM64.1 86.5c.46.17 1.1.5 1.7.82l.6-1.16c-.57-.3-1.3-.68-1.86-.88l-.44 1.22Zm1.7.82.81.42.35.14c.08.04.23.09.4.1l.04-1.3c.07 0 .1.01.02-.01a24.78 24.78 0 0 1-1.01-.5l-.61 1.15Zm2.63-1.16.27.7 1.2-.5-.25-.65-1.22.45Zm.27.7a4.6 4.6 0 0 0 .5.93.8.8 0 0 0 .56.26l.04-1.3a.5.5 0 0 1 .27.08.4.4 0 0 1 .08.07l-.03-.05-.22-.48-1.2.48Zm-.02-.05c.1.3.35.43.42.46.11.06.23.1.34.12.22.05.5.1.8.13.64.07 1.48.11 2.4.14 1.86.06 4.11.05 5.77.01l-.03-1.3c-1.64.03-3.87.04-5.7-.01-.91-.03-1.72-.07-2.3-.14a5.1 5.1 0 0 1-.62-.1l-.08-.02.08.06c.04.04.12.11.16.25l-1.24.4Zm21.65-.78h.38c.28 0 .64 0 1.1-.1.92-.2 2.17-.76 3.98-2.17l-.8-1.03c-1.72 1.34-2.8 1.78-3.46 1.92-.33.08-.58.08-.8.08h-.33c-.12 0-.27 0-.43.05l.36 1.25Zm6.7-9.27c.17 1-.1 2.49-.55 4.02l1.25.37c.46-1.55.8-3.3.58-4.61l-1.28.22Zm-.55 4.02c-.2.67-.43 1.33-.66 1.93l1.22.47c.24-.63.48-1.32.69-2.03l-1.25-.37Zm-.7 2.98c.4-.3.79-.8 1.1-1.25.32-.46.61-.93.78-1.2l-1.11-.68c-.17.27-.44.7-.74 1.13-.3.44-.6.8-.82.97l.8 1.03Zm-5.8 1.02c-.18.05-.32.15-.4.2l-.22.15c-.13.08-.33.19-.71.26l.22 1.28c.55-.1.92-.27 1.19-.43l.27-.2c.06-.04.05-.02 0 0l-.36-1.26Zm-1.33.6a79.2 79.2 0 0 1-10.27.99l.03 1.3a80.5 80.5 0 0 0 10.46-1l-.22-1.28Zm3.22-10.25.73 1.07a1.3 1.3 0 0 0-1.46-2.15l.73 1.08ZM60.84 12.17l-.04 1.3c.14 0 .28-.01.41-.05l-.37-1.25Zm9.32 114.34 1.1.71-1.1-.71Zm6.75-6.45-.11-1.3-.25.05.36 1.25Zm4.49 10.15 1.28-.21-1.28.21ZM78.23 6.74l-.42-1.24.42 1.24Zm-14.12 124.7-1.16-.6a1.3 1.3 0 0 0 2.3 1.2l-1.14-.6Zm27.35-56.03-.74-1.08a1.3 1.3 0 0 0 1.47 2.15l-.73-1.07Zm-27.2 55.72 1.16.6a1.3 1.3 0 0 0-2.3-1.2l1.15.6Zm27.48-55.92-.73-1.07.73 1.07Zm-.07.05-.73-1.07.73 1.07Zm-30.79-64.4c.06 0 .03.01-.17-.03l-.68-.14c-.57-.13-1.34-.3-2.26-.53l-6.66-1.59c-2.46-.58-5-1.17-7.15-1.62-2.1-.44-3.95-.77-4.95-.8l-.08 2.6c.72.02 2.33.3 4.5.75 2.1.44 4.62 1.02 7.08 1.6l6.66 1.6a159.55 159.55 0 0 0 3.05.69c.16.03.4.07.58.08l.08-2.6Zm-21.87-4.7c-3.45-.12-17.06-.26-26.39 9.22l1.86 1.83c8.48-8.62 21.02-8.56 24.45-8.45l.08-2.6Zm-26.39 9.22C7.84 20.22 5.67 28.13 5.14 36.3c-.54 8.23.57 17 2.63 23.89l2.5-.75a68.46 68.46 0 0 1-2.53-22.97c.51-7.96 2.62-15.09 6.74-19.27l-1.86-1.83ZM7.77 60.19c2.06 6.86 6.32 14.2 10.44 22.74 4.16 8.63 8.33 18.73 10.46 31.47l2.57-.43c-2.19-13.08-6.47-23.43-10.69-32.17-4.25-8.82-8.3-15.76-10.28-22.36l-2.5.75Zm20.9 54.2c2.15 12.9 4.03 21.93 6.43 27.91 1.21 3 2.6 5.33 4.28 7a10.6 10.6 0 0 0 6.02 3.03l.4-2.58a8 8 0 0 1-4.59-2.3c-1.34-1.33-2.55-3.3-3.69-6.12-2.28-5.68-4.12-14.43-6.28-27.36l-2.57.43Zm16.73 37.94c9.1 1.4 14.9-5.8 17.5-10.46l-2.28-1.27c-2.52 4.52-7.48 10.29-14.82 9.15l-.4 2.58Zm17.5-10.46c2.6-4.66 4.76-9.15 8.35-14.65l-2.18-1.42c-3.66 5.6-5.93 10.3-8.45 14.8l2.28 1.27Zm8.35-14.65a20.89 20.89 0 0 1 3.83-4.5 7.23 7.23 0 0 1 2.2-1.4l-.73-2.51c-.77.22-1.9.85-3.16 1.93a23.4 23.4 0 0 0-4.32 5.06l2.18 1.42Zm5.78-5.86c-.25.02-.28-.1-.06.08.2.17.5.52.87 1.18.74 1.33 1.6 3.72 2.27 7.8l2.57-.42c-.7-4.23-1.62-6.95-2.56-8.64a6.7 6.7 0 0 0-1.48-1.91 2.57 2.57 0 0 0-1.84-.69l.23 2.6Zm3.08 9.07c.87 5.25 1.97 9.32 3.31 12.37 1.34 3.06 2.97 5.2 4.96 6.44l1.38-2.2c-1.38-.87-2.73-2.5-3.95-5.28-1.22-2.78-2.28-6.62-3.13-11.76l-2.57.43Zm8.27 18.81a9.41 9.41 0 0 0 6.66 1.37c2.5-.39 5.22-1.68 8.31-3.99l-1.55-2.08c-2.9 2.16-5.24 3.2-7.16 3.5a6.8 6.8 0 0 1-4.88-1l-1.38 2.2Zm14.97-2.62c3.26-2.42 6.88-7.28 10.56-14.94 3.7-7.69 7.5-18.32 11.08-32.43l-2.52-.64c-3.55 14-7.31 24.45-10.91 31.94-3.62 7.53-7.02 11.94-9.76 13.99l1.55 2.09ZM125 99.25c3.59-14.16 5.3-29.12 5.84-41.8.54-12.64-.06-23.13-1.13-28.32l-2.55.53c1 4.88 1.62 15.1 1.07 27.68-.54 12.55-2.22 27.32-5.75 41.27l2.52.64Zm4.71-70.12a38.98 38.98 0 0 0-7.8-16.01c-3.97-4.9-9.23-8.96-15.4-10.4l-.6 2.54c5.45 1.27 10.25 4.89 13.98 9.5a36.42 36.42 0 0 1 7.27 14.9l2.55-.53Zm-23.2-26.4C94.49-.1 84.08 3.36 77.8 5.5l.84 2.47c6.26-2.12 16.03-5.34 27.25-2.71l.6-2.54ZM77.8 5.5a593.24 593.24 0 0 1-17.34 5.42l.74 2.5c3.7-1.1 12.4-3.74 17.44-5.45L77.8 5.5ZM63.1 130.53l-.16.3 2.3 1.22.17-.31-2.3-1.21Zm28.03-56.48-.13.09 1.46 2.15.13-.09-1.46-2.15Zm-25.88 58 .16-.31-2.3-1.21-.17.3 2.3 1.22ZM92.4 76.34l.07-.05-1.46-2.15-.07.05 1.46 2.15Zm.07-.05.13-.09-1.46-2.15-.13.08 1.46 2.16Zm-.28.2.21-.15-1.46-2.15-.22.14 1.47 2.15ZM91 74.13l-.07.05 1.46 2.15.07-.05L91 74.13Zm-.08.05-.2.14 1.46 2.15.21-.14-1.47-2.15Z" mask="url(#k)"/><defs><linearGradient id="a" x1="224.07" x2="230.58" y1="46.05" y2="128.13" gradientUnits="userSpaceOnUse"><stop stop-color="#A6466F"/><stop offset="1" stop-color="#FF6BAB"/></linearGradient><linearGradient id="b" x1="391.41" x2="391.41" y1="34.48" y2="113.71" gradientUnits="userSpaceOnUse"><stop stop-color="#E4F0FF"/><stop offset="1" stop-color="#C7E0FF"/></linearGradient><linearGradient id="c" x1="391.41" x2="391.41" y1="34.48" y2="113.71" gradientUnits="userSpaceOnUse"><stop stop-color="#E4F0FF"/><stop offset="1" stop-color="#C7E0FF"/></linearGradient><linearGradient id="d" x1="391.41" x2="391.41" y1="34.48" y2="113.71" gradientUnits="userSpaceOnUse"><stop stop-color="#E4F0FF"/><stop offset="1" stop-color="#C7E0FF"/></linearGradient><linearGradient id="e" x1="391.41" x2="391.41" y1="34.48" y2="113.71" gradientUnits="userSpaceOnUse"><stop stop-color="#E4F0FF"/><stop offset="1" stop-color="#C7E0FF"/></linearGradient><linearGradient id="f" x1="391.41" x2="391.41" y1="34.48" y2="113.71" gradientUnits="userSpaceOnUse"><stop stop-color="#E4F0FF"/><stop offset="1" stop-color="#C7E0FF"/></linearGradient><linearGradient id="g" x1="391.41" x2="391.41" y1="34.48" y2="113.71" gradientUnits="userSpaceOnUse"><stop stop-color="#E4F0FF"/><stop offset="1" stop-color="#C7E0FF"/></linearGradient><linearGradient id="i" x1="317.81" x2="317.81" y1="34.48" y2="113.71" gradientUnits="userSpaceOnUse"><stop stop-color="#E4F0FF"/><stop offset="1" stop-color="#C7E0FF"/></linearGradient><linearGradient id="j" x1="69.45" x2="64.52" y1="2.03" y2="151.76" gradientUnits="userSpaceOnUse"><stop stop-color="#E4F0FF"/><stop offset="1" stop-color="#C7E1FF"/></linearGradient></defs></svg>